<?xml version="1.0" encoding="UTF-8"?>
<svg width="270px" height="140px" viewBox="0 0 270 140" version="1.1" xmlns="http://www.w3.org/2000/svg" xmlns:xlink="http://www.w3.org/1999/xlink">
    <!-- Generator: Sketch 46.2 (44496) - http://www.bohemiancoding.com/sketch -->
    <title>1</title>
    <desc>Created with Sketch.</desc>
    <defs></defs>
    <g id="HOME-&amp;-ABOUT" stroke="none" stroke-width="1" fill="none" fill-rule="evenodd">
        <g id="D---00-Home" transform="translate(-225.000000, -2246.000000)">
            <g id="3-COL" transform="translate(216.000000, 2106.000000)">
                <g id="1" transform="translate(9.000000, 140.000000)">
                    <rect id="base" fill="#FFFFFF" x="0" y="0" width="270" height="140"></rect>
                    <g id="illustrations" transform="translate(135.000000, 63.000000) scale(1, -1) rotate(90.000000) translate(-135.000000, -63.000000) translate(72.000000, -26.000000)" fill="#F4D100">
                        <polygon id="Fill-1" transform="translate(11.735259, 5.613309) rotate(90.000000) translate(-11.735259, -5.613309) " points="15.0993737 0.0155984267 6.1262851 8.97225203 8.36797077 11.2110196 17.3442323 2.25594929"></polygon>
                        <polygon id="Fill-2" transform="translate(11.734307, 5.612357) rotate(90.000000) translate(-11.734307, -5.612357) " points="8.36860536 0.0146465431 6.12533321 2.25499741 15.1000082 11.2100677 17.3432804 8.97130014"></polygon>
                        <polygon id="Fill-1" transform="translate(6.138500, 171.516471) rotate(90.000000) translate(-6.138500, -171.516471) " points="9.50261496 165.91876 0.529526393 174.875414 2.77121206 177.114181 11.7474736 168.159111"></polygon>
                        <polygon id="Fill-2" transform="translate(6.136596, 171.514567) rotate(90.000000) translate(-6.136596, -171.514567) " points="2.77089477 165.916856 0.527622626 168.157207 9.50229766 177.112278 11.7455698 174.87351"></polygon>
                        <polygon id="Fill-1" transform="translate(74.030410, 87.019147) rotate(90.000000) translate(-74.030410, -87.019147) " points="77.3945248 81.4214362 68.4214362 90.3780898 70.6631219 92.6168574 79.6393834 83.6617871"></polygon>
                        <polygon id="Fill-2" transform="translate(74.028506, 87.017243) rotate(90.000000) translate(-74.028506, -87.017243) " points="70.6628046 81.4195325 68.4195325 83.6598833 77.3942075 92.6149536 79.6374796 90.3761861"></polygon>
                        <path d="M91.5597838,152.40198 L94.9257629,149.043948 L92.6809043,146.803597 L89.3158176,150.16252 L85.950136,146.803597 L83.7068638,149.043948 L87.072248,152.40198 L83.7078157,155.76025 L85.9495014,157.999018 L89.3158176,154.640649 L92.6815389,157.999018 L94.924811,155.76025 L91.5597838,152.40198 Z" id="Combined-Shape" opacity="0.334421642" transform="translate(89.316313, 152.401307) rotate(90.000000) translate(-89.316313, -152.401307) "></path>
                        <path d="M91.5597838,46.309447 L94.9257629,42.9514143 L92.6809043,40.7110635 L89.3158176,44.0699867 L85.950136,40.7110635 L83.7068638,42.9514143 L87.072248,46.309447 L83.7078157,49.6677171 L85.9495014,51.9064846 L89.3158176,48.5481156 L92.6815389,51.9064846 L94.924811,49.6677171 L91.5597838,46.309447 Z" id="Combined-Shape" opacity="0.533173974" transform="translate(89.316313, 46.308774) rotate(90.000000) translate(-89.316313, -46.308774) "></path>
                        <polygon id="Fill-1" transform="translate(117.080490, 103.613776) rotate(135.000000) translate(-117.080490, -103.613776) " points="120.444605 98.0160653 111.471516 106.972719 113.713202 109.211486 122.689463 100.256416"></polygon>
                        <polygon id="Fill-2" transform="translate(117.081163, 103.613103) rotate(135.000000) translate(-117.081163, -103.613103) " points="113.715461 98.0153922 111.472189 100.255743 120.446864 109.210813 122.690136 106.972046"></polygon>
                    </g>
                    <path d="M138.261538,40.9538462 C154.365908,40.9538462 168.8752,51.1195077 174.364923,66.2491077 L177.143015,65.2418462 C171.229415,48.9484308 155.603569,38 138.261538,38 C120.906215,38 105.274462,48.9602462 99.3667692,65.2758154 L102.143385,66.2801231 C107.630154,51.1328 122.143877,40.9538462 138.261538,40.9538462 L138.261538,40.9538462 Z M158.461415,112.020431 L160.015138,114.529723 C170.907446,107.783138 177.958277,96.6382769 179.362831,83.9574154 L176.426708,83.6310154 C175.122585,95.4050462 168.572431,105.752369 158.461415,112.020431 L158.461415,112.020431 Z M100.084554,83.5350154 L97.1484308,83.8525538 C98.5175385,96.4905846 105.834215,108.007631 116.722092,114.664123 L118.261046,112.143015 C108.151508,105.962092 101.356185,95.2676923 100.084554,83.5350154 L100.084554,83.5350154 Z M120.538462,120.707692 L123.492308,120.707692 L123.492308,117.753846 L120.538462,117.753846 L120.538462,120.707692 Z M120.538462,126.615385 L123.492308,126.615385 L123.492308,123.661538 L120.538462,123.661538 L120.538462,126.615385 Z M120.538462,132.523077 L123.492308,132.523077 L123.492308,129.569231 L120.538462,129.569231 L120.538462,132.523077 Z M153.030769,120.707692 L155.984615,120.707692 L155.984615,117.753846 L153.030769,117.753846 L153.030769,120.707692 Z M153.030769,126.615385 L155.984615,126.615385 L155.984615,123.661538 L153.030769,123.661538 L153.030769,126.615385 Z M153.030769,132.523077 L155.984615,132.523077 L155.984615,129.569231 L153.030769,129.569231 L153.030769,132.523077 Z M176.252431,77.8769231 L170.753846,77.8769231 L170.753846,71.9692308 L176.252431,71.9692308 L181.176492,74.9230769 L176.252431,77.8769231 Z M167.8,77.8769231 L152.999754,77.8769231 L153.024862,71.9692308 L167.8,71.9692308 L167.8,77.8769231 Z M150.076923,85.0444308 L145.708185,99.6068923 L145.674215,101.507692 L130.876923,101.507692 L130.876923,96.5851077 L126.230523,90.3894154 L123.492308,84.9129846 L123.492308,80.8307692 L126.446154,80.8307692 L126.446154,82.3076923 L129.4,82.3076923 L129.4,69.0153846 C129.4,68.2016 130.063138,67.5384615 130.876923,67.5384615 C131.690708,67.5384615 132.353846,68.2016 132.353846,69.0153846 L132.353846,71.9692308 L135.307692,71.9692308 L135.307692,66.0615385 C135.307692,65.2477538 135.970831,64.5846154 136.784615,64.5846154 C137.5984,64.5846154 138.261538,65.2477538 138.261538,66.0615385 L138.261538,71.9692308 L141.215385,71.9692308 L141.215385,69.0153846 C141.215385,68.2016 141.877046,67.5384615 142.692308,67.5384615 C143.507569,67.5384615 144.169231,68.2016 144.169231,69.0153846 L144.169231,71.9692308 L147.123077,71.9692308 L147.123077,70.4923077 C147.123077,69.6785231 147.784738,69.0153846 148.6,69.0153846 C149.415262,69.0153846 150.076923,69.6785231 150.076923,70.4923077 L150.076923,85.0444308 Z M108.723077,77.8769231 L126.446154,77.8769231 L126.446154,71.9692308 L108.723077,71.9692308 L108.723077,77.8769231 Z M102.815385,77.8769231 L105.769231,77.8769231 L105.769231,71.9692308 L102.815385,71.9692308 L102.815385,77.8769231 Z M99.8615385,77.8769231 L96.9076923,77.8769231 C95.2786462,77.8769231 93.9538462,76.5521231 93.9538462,74.9230769 C93.9538462,73.2940308 95.2786462,71.9692308 96.9076923,71.9692308 L99.8615385,71.9692308 L99.8615385,77.8769231 Z M184.806769,73.6573538 L177.422154,69.2265846 C177.191754,69.0877538 176.930338,69.0153846 176.661538,69.0153846 L152.757538,69.0153846 C152.146092,67.2992 150.522954,66.0615385 148.6,66.0615385 C147.811323,66.0615385 147.068431,66.2697846 146.425969,66.6331077 C145.637292,65.4013538 144.259323,64.5846154 142.692308,64.5846154 C142.116308,64.5846154 141.565415,64.6953846 141.060308,64.8962462 C140.547815,63.0161231 138.824246,61.6307692 136.784615,61.6307692 C134.744985,61.6307692 133.022892,63.0161231 132.508923,64.8962462 C132.003815,64.6953846 131.452923,64.5846154 130.876923,64.5846154 C128.434092,64.5846154 126.446154,66.5725538 126.446154,69.0153846 L96.9076923,69.0153846 C93.6496,69.0153846 91,71.6649846 91,74.9230769 C91,78.1811692 93.6496,80.8307692 96.9076923,80.8307692 L120.538462,80.8307692 L120.538462,85.6100923 L123.647385,91.8308923 L127.923077,97.5687385 L127.923077,101.919754 C127.044308,102.430769 126.446154,103.374523 126.446154,104.461538 L126.446154,132.523077 L129.4,132.523077 L129.4,104.461538 L147.123077,104.461538 L147.123077,132.523077 L150.076923,132.523077 L150.076923,104.461538 C150.076923,103.374523 149.478769,102.430769 148.6,101.919754 L148.6,100.247877 L152.968738,85.6854154 L152.989415,80.8307692 L176.661538,80.8307692 C176.930338,80.8307692 177.191754,80.7584 177.422154,80.6195692 L184.806769,76.1888 C185.249846,75.9229538 185.523077,75.4414769 185.523077,74.9230769 C185.523077,74.4046769 185.249846,73.9232 184.806769,73.6573538 L184.806769,73.6573538 Z M132.353846,110.369231 L135.307692,110.369231 L135.307692,107.415385 L132.353846,107.415385 L132.353846,110.369231 Z" id="sparkles" fill="#2E5478"></path>
                </g>
            </g>
        </g>
    </g>
</svg>