<?xml version="1.0" encoding="UTF-8"?>
<svg width="270px" height="140px" viewBox="0 0 270 140" version="1.1" xmlns="http://www.w3.org/2000/svg" xmlns:xlink="http://www.w3.org/1999/xlink">
    <!-- Generator: Sketch 46.2 (44496) - http://www.bohemiancoding.com/sketch -->
    <title>3</title>
    <desc>Created with Sketch.</desc>
    <defs></defs>
    <g id="HOME-&amp;-ABOUT" stroke="none" stroke-width="1" fill="none" fill-rule="evenodd">
        <g id="D---00-Home" transform="translate(-950.000000, -2247.000000)">
            <g id="3-COL" transform="translate(216.000000, 2106.000000)">
                <g id="3" transform="translate(734.000000, 141.000000)">
                    <rect id="base" fill="#FFFFFF" x="0" y="0" width="270" height="140"></rect>
                    <g id="sparkles" transform="translate(139.500000, 66.000000) scale(-1, -1) rotate(90.000000) translate(-139.500000, -66.000000) translate(73.500000, -18.500000)" fill="#F4D100">
                        <polygon id="Fill-1" transform="translate(17.734307, 6.192736) rotate(90.000000) translate(-17.734307, -6.192736) " points="21.0984218 0.59502551 12.1253332 9.55167911 14.3670189 11.7904467 23.3432804 2.83537637"></polygon>
                        <polygon id="Fill-2" transform="translate(17.735259, 6.191784) rotate(90.000000) translate(-17.735259, -6.191784) " points="14.3695572 0.594073626 12.1262851 2.83442449 21.1009601 11.7894948 23.3442323 9.55072723"></polygon>
                        <polygon id="Fill-1" transform="translate(6.527623, 155.611806) rotate(90.000000) translate(-6.527623, -155.611806) " points="9.8917376 150.014095 0.918649038 158.970749 3.16033471 161.209516 12.1365962 152.254446"></polygon>
                        <polygon id="Fill-2" transform="translate(6.528575, 155.610854) rotate(90.000000) translate(-6.528575, -155.610854) " points="3.16287306 150.013143 0.919600921 152.253494 9.89427596 161.208564 12.1375481 158.969797"></polygon>
                        <polygon id="Fill-1" transform="translate(42.597276, 141.959982) rotate(90.000000) translate(-42.597276, -141.959982) " points="45.9613909 136.362272 36.9883023 145.318925 39.229988 147.557693 48.2062495 138.602622"></polygon>
                        <polygon id="Fill-2" transform="translate(42.599180, 141.959982) rotate(90.000000) translate(-42.599180, -141.959982) " points="39.2334783 136.362272 36.9902061 138.602622 45.9648811 147.557693 48.2081533 145.318925"></polygon>
                        <path d="M86.476396,162.573297 L89.8423751,159.215265 L87.5975165,156.974914 L84.2324298,160.333837 L80.8667482,156.974914 L78.623476,159.215265 L81.9888602,162.573297 L78.6244279,165.931567 L80.8661136,168.170335 L84.2324298,164.811966 L87.5981511,168.170335 L89.8414232,165.931567 L86.476396,162.573297 Z" id="Combined-Shape" opacity="0.334421642" transform="translate(84.232926, 162.572624) rotate(90.000000) translate(-84.232926, -162.572624) "></path>
                        <path d="M106.862412,23.7234709 L110.228392,20.3654383 L107.983533,18.1250874 L104.618446,21.4840107 L101.252765,18.1250874 L99.0094924,20.3654383 L102.374877,23.723471 L99.0104443,27.081741 L101.25213,29.3205086 L104.618446,25.9621396 L107.984167,29.3205086 L110.22744,27.081741 L106.862412,23.7234709 Z" id="Combined-Shape" opacity="0.533173974" transform="translate(104.618942, 23.722798) rotate(90.000000) translate(-104.618942, -23.722798) "></path>
                        <polygon id="Fill-1" transform="translate(123.080490, 86.613776) rotate(135.000000) translate(-123.080490, -86.613776) " points="126.444605 81.0160653 117.471516 89.9727189 119.713202 92.2114864 128.689463 83.2564161"></polygon>
                        <polygon id="Fill-2" transform="translate(123.081163, 86.613103) rotate(135.000000) translate(-123.081163, -86.613103) " points="119.715461 81.0153922 117.472189 83.255743 126.446864 92.2108134 128.690136 89.9720458"></polygon>
                    </g>
                    <path d="M109.6,72.2 L160.8,72.2 L160.8,69 L109.6,69 L109.6,72.2 Z M109.6,65.8 L160.8,65.8 L160.8,62.6 L109.6,62.6 L109.6,65.8 Z M109.6,59.4 L160.8,59.4 L160.8,56.2 L109.6,56.2 L109.6,59.4 Z M109.6,48.2 L128.8,48.2 L128.8,45 L109.6,45 L109.6,48.2 Z M135.2,105.8016 C130.7888,105.8016 127.2,102.2128 127.2,97.8016 C127.2,93.3904 130.7888,89.8 135.2,89.8 C139.6112,89.8 143.2,93.3904 143.2,97.8016 C143.2,102.2128 139.6112,105.8016 135.2,105.8016 L135.2,105.8016 Z M135.2,86.6 C129.0256,86.6 124,91.6256 124,97.8016 C124,103.976 129.0256,109.0016 135.2,109.0016 C141.3744,109.0016 146.4,103.976 146.4,97.8016 C146.4,91.6256 141.3744,86.6 135.2,86.6 L135.2,86.6 Z M150.6016,102.0784 C150.248,103.36 149.7408,104.5808 149.0944,105.7104 L148.624,106.5344 L149.1184,107.344 C149.4368,107.8624 149.6,108.4208 149.6,109.0016 C149.6,110.7664 148.1648,112.2016 146.4,112.2016 C145.8208,112.2016 145.2624,112.0384 144.744,111.72 L143.936,111.2256 L143.112,111.696 C141.9792,112.3424 140.7568,112.8496 139.4784,113.2032 L138.528,113.4656 L138.336,114.4336 C138.0384,115.92 136.72,117.0016 135.2,117.0016 C133.68,117.0016 132.3616,115.92 132.064,114.4336 L131.872,113.4656 L130.9216,113.2032 C129.6416,112.8496 128.4208,112.3424 127.2896,111.696 L126.4672,111.2256 L125.6592,111.72 C125.136,112.0384 124.5792,112.2016 124,112.2016 C122.2352,112.2016 120.8,110.7664 120.8,109.0016 C120.8,108.4208 120.9616,107.8624 121.28,107.344 L121.776,106.5344 L121.3056,105.7104 C120.6576,104.5792 120.1504,103.3584 119.7984,102.08 L119.536,101.128 L118.568,100.936 C117.08,100.6384 116,99.3216 116,97.8016 C116,96.2816 117.08,94.9632 118.5696,94.6656 L119.536,94.4736 L119.7984,93.5216 C120.1504,92.2464 120.6576,91.0256 121.3056,89.8896 L121.776,89.0656 L121.28,88.2592 C120.9616,87.7376 120.8,87.1808 120.8,86.6 C120.8,84.8352 122.2352,83.4 124,83.4 C124.5792,83.4 125.136,83.5632 125.6592,83.8832 L126.4672,84.3776 L127.2896,83.9072 C128.4208,83.2592 129.6416,82.752 130.9216,82.4 L131.872,82.136 L132.064,81.1696 C132.3616,79.6816 133.68,78.6 135.2,78.6 C136.72,78.6 138.0384,79.6816 138.336,81.1696 L138.528,82.136 L139.4784,82.4 C140.7568,82.752 141.9792,83.2592 143.112,83.9072 L143.936,84.3776 L144.744,83.8816 C145.2624,83.5632 145.8208,83.4 146.4,83.4 C148.1648,83.4 149.6,84.8352 149.6,86.6 C149.6,87.1808 149.4368,87.7376 149.1184,88.2592 L148.624,89.0656 L149.0944,89.8896 C149.7408,91.0224 150.248,92.2448 150.6016,93.5232 L150.864,94.4736 L151.832,94.6656 C153.3184,94.9632 154.4,96.2816 154.4,97.8016 C154.4,99.3216 153.32,100.6384 151.832,100.936 L150.864,101.128 L150.6016,102.0784 Z M152.8,109.0016 C152.8,108.1552 152.6256,107.3136 152.2912,106.528 C152.736,105.6544 153.1152,104.7424 153.424,103.8 C155.8944,102.8864 157.6,100.5024 157.6,97.8016 C157.6,95.1008 155.8944,92.7168 153.424,91.8016 C153.1152,90.8608 152.736,89.9488 152.2896,89.0736 C152.6256,88.288 152.8,87.4464 152.8,86.6 C152.8,83.072 149.9296,80.2 146.4,80.2 C145.5552,80.2 144.7136,80.376 143.9264,80.7104 C143.0528,80.2656 142.1408,79.8848 141.2,79.5776 C140.2848,77.1072 137.9008,75.4 135.2,75.4 C132.5008,75.4 130.1152,77.1072 129.2,79.5776 C128.2592,79.8848 127.3472,80.2656 126.472,80.7104 C125.6864,80.376 124.8448,80.2 124,80.2 C120.4704,80.2 117.6,83.072 117.6,86.6 C117.6,87.4464 117.7744,88.288 118.1104,89.0736 C117.664,89.9504 117.2832,90.8624 116.976,91.8016 C114.5056,92.7168 112.8,95.1008 112.8,97.8016 C112.8,100.5024 114.5056,102.8864 116.976,103.8 C117.2848,104.7408 117.664,105.6528 118.1104,106.528 C117.7744,107.3136 117.6,108.1552 117.6,109.0016 C117.6,112.5312 120.4704,115.4016 124,115.4016 C124.8448,115.4016 125.6864,115.2272 126.472,114.8912 C127.3472,115.3376 128.2592,115.7168 129.2,116.0256 C130.1152,118.496 132.5008,120.2016 135.2,120.2016 C137.9008,120.2016 140.2848,118.496 141.2,116.0256 C142.1408,115.7168 143.0528,115.3376 143.9264,114.8928 C144.7136,115.2272 145.5552,115.4016 146.4,115.4016 C149.9296,115.4016 152.8,112.5312 152.8,109.0016 L152.8,109.0016 Z M143.2,134.3856 L136.2256,128.5712 C135.632,128.0784 134.768,128.0784 134.1744,128.5712 L127.2,134.3856 L127.2,118.6016 L124,118.6016 L124,137.8016 C124,138.4224 124.36,138.9872 124.9216,139.2496 C125.4848,139.5136 126.1472,139.4288 126.624,139.032 L135.2,131.8848 L143.7744,139.032 C144.0688,139.2752 144.4336,139.4016 144.8,139.4016 C145.0304,139.4016 145.2624,139.352 145.4784,139.2496 C146.04,138.9872 146.4,138.4224 146.4,137.8016 L146.4,118.6016 L143.2,118.6016 L143.2,134.3856 Z M157.6,49.8 L157.6,42.464 L164.9376,49.8 L157.6,49.8 Z M169.9312,50.2688 L157.1312,37.4688 C156.832,37.1696 156.4256,37 156,37 L101.6,37 C100.7168,37 100,37.7168 100,38.6 L100,125.0016 C100,125.8864 100.7168,126.6016 101.6,126.6016 L120.8,126.6016 L120.8,123.4016 L103.2,123.4016 L103.2,40.2 L154.4,40.2 L154.4,53 L167.2,53 L167.2,123.4016 L149.6,123.4016 L149.6,126.6016 L168.8,126.6016 C169.6848,126.6016 170.4,125.8864 170.4,125.0016 L170.4,51.4 C170.4,50.976 170.232,50.5696 169.9312,50.2688 L169.9312,50.2688 Z" id="illustration" fill="#2E5478"></path>
                </g>
            </g>
        </g>
    </g>
</svg>