<?xml version="1.0" encoding="UTF-8"?>
<svg width="1109px" height="521px" viewBox="0 0 1109 521" version="1.1" xmlns="http://www.w3.org/2000/svg" xmlns:xlink="http://www.w3.org/1999/xlink">
    <!-- Generator: Sketch 45.2 (43514) - http://www.bohemiancoding.com/sketch -->
    <title>Group 7</title>
    <desc>Created with Sketch.</desc>
    <defs></defs>
    <g id="HOME-&amp;-ABOUT" stroke="none" stroke-width="1" fill="none" fill-rule="evenodd">
        <g id="D---00-About" transform="translate(-117.000000, -2118.000000)" fill="#F4D100">
            <g id="BETTER-SUPPORT" transform="translate(117.000000, 2118.000000)">
                <g id="Group-7">
                    <g id="Group-6-Copy-2" transform="translate(229.000000, 199.000000) scale(1, -1) rotate(90.000000) translate(-229.000000, -199.000000) translate(30.000000, -30.000000)">
                        <polygon id="Fill-1" transform="translate(392.105570, 5.825514) rotate(90.000000) translate(-392.105570, -5.825514) " points="395.469685 0.227803844 386.496597 9.18445744 388.738282 11.423225 397.714544 2.46815471"></polygon>
                        <polygon id="Fill-2" transform="translate(392.103666, 5.823611) rotate(90.000000) translate(-392.103666, -5.823611) " points="388.737965 0.225900077 386.494693 2.46625094 395.469368 11.4213213 397.71264 9.18255368"></polygon>
                        <polygon id="Fill-1" transform="translate(254.138500, 451.516471) rotate(90.000000) translate(-254.138500, -451.516471) " points="257.502615 445.91876 248.529526 454.875414 250.771212 457.114181 259.747474 448.159111"></polygon>
                        <polygon id="Fill-2" transform="translate(254.136596, 451.514567) rotate(90.000000) translate(-254.136596, -451.514567) " points="250.770895 445.916856 248.527623 448.157207 257.502298 457.112278 259.74557 454.87351"></polygon>
                        <polygon id="Fill-1" transform="translate(6.279265, 432.413046) rotate(90.000000) translate(-6.279265, -432.413046) " points="9.64338018 426.815336 0.670291615 435.771989 2.91197728 438.010757 11.8882388 429.055686"></polygon>
                        <polygon id="Fill-2" transform="translate(6.275458, 432.409239) rotate(90.000000) translate(-6.275458, -432.409239) " points="2.90975622 426.811528 0.666484081 429.051879 9.64115912 438.006949 11.8844313 435.768182"></polygon>
                        <path d="M339.559784,432.40198 L342.925763,429.043948 L340.680904,426.803597 L337.315818,430.16252 L333.950136,426.803597 L331.706864,429.043948 L335.072248,432.40198 L331.707816,435.76025 L333.949501,437.999018 L337.315818,434.640649 L340.681539,437.999018 L342.924811,435.76025 L339.559784,432.40198 Z" id="Combined-Shape" opacity="0.334421642" transform="translate(337.316313, 432.401307) rotate(90.000000) translate(-337.316313, -432.401307) "></path>
                        <path d="M375.248956,278.238991 L378.614935,274.880958 L376.370076,272.640607 L373.004989,275.999531 L369.639308,272.640607 L367.396036,274.880958 L370.76142,278.238991 L367.396987,281.597261 L369.638673,283.836029 L373.004989,280.47766 L376.370711,283.836029 L378.613983,281.597261 L375.248956,278.238991 Z" id="Combined-Shape" opacity="0.533173974" transform="translate(373.005485, 278.238318) rotate(90.000000) translate(-373.005485, -278.238318) "></path>
                        <polygon id="Fill-1" transform="translate(365.080490, 383.613776) rotate(135.000000) translate(-365.080490, -383.613776) " points="368.444605 378.016065 359.471516 386.972719 361.713202 389.211486 370.689463 380.256416"></polygon>
                        <polygon id="Fill-2" transform="translate(365.081163, 383.613103) rotate(135.000000) translate(-365.081163, -383.613103) " points="361.715461 378.015392 359.472189 380.255743 368.446864 389.210813 370.690136 386.972046"></polygon>
                    </g>
                    <g id="Group-6-Copy-3" transform="translate(880.000000, 322.000000) scale(-1, 1) rotate(90.000000) translate(-880.000000, -322.000000) translate(681.000000, 93.000000)">
                        <polygon id="Fill-1" transform="translate(392.105570, 5.825514) rotate(90.000000) translate(-392.105570, -5.825514) " points="395.469685 0.227803844 386.496597 9.18445744 388.738282 11.423225 397.714544 2.46815471"></polygon>
                        <polygon id="Fill-2" transform="translate(392.103666, 5.823611) rotate(90.000000) translate(-392.103666, -5.823611) " points="388.737965 0.225900077 386.494693 2.46625094 395.469368 11.4213213 397.71264 9.18255368"></polygon>
                        <polygon id="Fill-1" transform="translate(254.138500, 451.516471) rotate(90.000000) translate(-254.138500, -451.516471) " points="257.502615 445.91876 248.529526 454.875414 250.771212 457.114181 259.747474 448.159111"></polygon>
                        <polygon id="Fill-2" transform="translate(254.136596, 451.514567) rotate(90.000000) translate(-254.136596, -451.514567) " points="250.770895 445.916856 248.527623 448.157207 257.502298 457.112278 259.74557 454.87351"></polygon>
                        <polygon id="Fill-1" transform="translate(6.279265, 432.413046) rotate(90.000000) translate(-6.279265, -432.413046) " points="9.64338018 426.815336 0.670291615 435.771989 2.91197728 438.010757 11.8882388 429.055686"></polygon>
                        <polygon id="Fill-2" transform="translate(6.275458, 432.409239) rotate(90.000000) translate(-6.275458, -432.409239) " points="2.90975622 426.811528 0.666484081 429.051879 9.64115912 438.006949 11.8844313 435.768182"></polygon>
                        <path d="M339.559784,432.40198 L342.925763,429.043948 L340.680904,426.803597 L337.315818,430.16252 L333.950136,426.803597 L331.706864,429.043948 L335.072248,432.40198 L331.707816,435.76025 L333.949501,437.999018 L337.315818,434.640649 L340.681539,437.999018 L342.924811,435.76025 L339.559784,432.40198 Z" id="Combined-Shape" opacity="0.334421642" transform="translate(337.316313, 432.401307) rotate(90.000000) translate(-337.316313, -432.401307) "></path>
                        <path d="M375.248956,278.238991 L378.614935,274.880958 L376.370076,272.640607 L373.004989,275.999531 L369.639308,272.640607 L367.396036,274.880958 L370.76142,278.238991 L367.396987,281.597261 L369.638673,283.836029 L373.004989,280.47766 L376.370711,283.836029 L378.613983,281.597261 L375.248956,278.238991 Z" id="Combined-Shape" opacity="0.533173974" transform="translate(373.005485, 278.238318) rotate(90.000000) translate(-373.005485, -278.238318) "></path>
                        <polygon id="Fill-1" transform="translate(365.080490, 383.613776) rotate(135.000000) translate(-365.080490, -383.613776) " points="368.444605 378.016065 359.471516 386.972719 361.713202 389.211486 370.689463 380.256416"></polygon>
                        <polygon id="Fill-2" transform="translate(365.081163, 383.613103) rotate(135.000000) translate(-365.081163, -383.613103) " points="361.715461 378.015392 359.472189 380.255743 368.446864 389.210813 370.690136 386.972046"></polygon>
                    </g>
                </g>
            </g>
        </g>
    </g>
</svg>