<?xml version="1.0" encoding="UTF-8" standalone="no"?>
<svg width="44px" height="45px" viewBox="0 0 44 45" version="1.1" xmlns="http://www.w3.org/2000/svg" xmlns:xlink="http://www.w3.org/1999/xlink">
    <!-- Generator: Sketch 45.2 (43514) - http://www.bohemiancoding.com/sketch -->
    <desc>Created with Sketch.</desc>
    <defs></defs>
    <g id="Symbols" stroke="none" stroke-width="1" fill="none" fill-rule="evenodd">
        <g id="LOGO/Logo" transform="translate(-14.000000, -11.000000)">
            <g id="Group" transform="translate(14.000000, 11.000000)">
                <path d="M21.2572989,42.4688163 L16.7321928,39.8555601 L16.7321928,34.7148738 C16.8920068,34.6497644 17.0488614,34.5757764 17.2027564,34.4840313 C19.6887533,33.0397855 19.949191,28.8491051 17.7798629,25.1201099 C15.6164537,21.3911146 11.8430657,19.5384551 9.35706883,20.9797413 C6.87403152,22.4239871 6.61359376,26.6205865 8.77700291,30.3466223 C9.09959059,30.897093 9.45177348,31.4031709 9.83059204,31.864856 L9.83059204,35.8720462 L4.56264638,32.8326191 L4.56264638,13.545427 L2.63599883,12.4326475 C0.987546174,15.5105483 0.0404997631,19.0205391 0.0404997631,22.7554534 C0.0404997631,34.6260882 9.47544964,44.2889211 21.2572989,44.6706992 L21.2572989,42.4688163 Z" id="Fill-16" fill="#208D66"></path>
                <path d="M41.314854,12.4385665 L39.3822874,13.5543056 L39.3822874,19.6568359 L35.7509564,21.7137023 C35.4875591,21.4059122 35.179769,21.142515 34.8246266,20.9353485 C32.3386298,19.4911028 28.5652417,21.3437623 26.4018326,25.0727576 C24.2354639,28.8017528 24.4929422,32.9953927 26.978939,34.4396385 C29.4649358,35.8838842 33.2383239,34.0312247 35.4046925,30.3022295 C35.8693372,29.49724 36.2244796,28.6685744 36.4671602,27.8517469 L39.3822874,26.1648205 L39.3822874,32.8326191 L22.7201897,42.4540187 L22.7201897,44.6706992 C34.4872413,44.2741235 43.9073936,34.6172097 43.9073936,22.7554534 C43.9073936,19.0234986 42.9603472,15.5164674 41.314854,12.4385665" id="Fill-17" fill="#487EA8"></path>
                <path d="M5.32383493,12.2926622 L10.5207521,9.29466839 L13.8502122,11.2213159 C13.7318314,11.5853369 13.6667219,11.9582364 13.6667219,12.3459335 C13.6667219,15.2196275 17.1619151,17.5487698 21.4739358,17.5487698 C25.7859565,17.5487698 29.2841091,15.2196275 29.2841091,12.3459335 C29.2841091,9.46928008 25.7859565,7.14013781 21.4739358,7.14013781 C20.5120918,7.14013781 19.591681,7.25555909 18.7393393,7.46864453 L16.1911925,6.01847971 L21.9740946,2.68014111 L38.6302734,12.2985812 C39.3523963,11.8812889 40.0094097,11.5024703 40.5805971,11.1710041 C36.7065854,4.96193106 29.8316203,0.824522052 21.9740946,0.824522052 C14.1195285,0.824522052 7.24160391,4.95897154 3.37055171,11.1650851 C3.95653667,11.5054299 4.61355012,11.8812889 5.32383493,12.2926622" id="Fill-18" fill="#FF6B6B"></path>
            </g>
        </g>
    </g>
</svg>