<?xml version="1.0" encoding="UTF-8"?>
<svg width="16px" height="16px" viewBox="0 0 16 16" version="1.1" xmlns="http://www.w3.org/2000/svg" xmlns:xlink="http://www.w3.org/1999/xlink">
    <!-- Generator: Sketch 48.1 (47250) - http://www.bohemiancoding.com/sketch -->
    <title>Mask</title>
    <desc>Created with Sketch.</desc>
    <defs>
        <path d="M14.1874994,13.5208334 L14.1874994,6.77083386 L12.7812507,6.77083386 C12.9201401,7.20833618 12.9895824,7.66319151 12.9895824,8.13541616 C12.9895824,9.01042081 12.7673627,9.81770513 12.3229164,10.5572924 C11.8784701,11.2968798 11.2743094,11.8819421 10.5104158,12.3125004 C9.74652446,12.7430587 8.91319781,12.9583344 8.01041717,12.9583344 C6.64235353,12.9583344 5.47222655,12.4878527 4.49999891,11.5468754 C3.52777359,10.6058981 3.0416656,9.46875747 3.0416656,8.13541616 C3.0416656,7.66319151 3.11111027,7.20833618 3.2499996,6.77083386 L1.78125006,6.77083386 L1.78125006,13.5208334 C1.78125006,13.7013897 1.84201333,13.8524299 1.96354173,13.9739583 C2.08507012,14.0954867 2.23611005,14.15625 2.41666595,14.15625 L13.5520837,14.15625 C13.7256954,14.15625 13.8749984,14.0954867 13.9999997,13.9739583 C14.125001,13.8524299 14.1874994,13.7013897 14.1874994,13.5208334 L14.1874994,13.5208334 Z M11.2291664,7.96875083 C11.2291664,7.10763419 10.9149341,6.37326653 10.2864578,5.76562455 C9.6579838,5.15798256 8.89930981,4.85416623 8.01041717,4.85416623 C7.12846852,4.85416623 6.37326653,5.15798256 5.74479255,5.76562455 C5.11631623,6.37326653 4.8020839,7.10763419 4.8020839,7.96875083 C4.8020839,8.82986515 5.11631623,9.5642328 5.74479255,10.1718748 C6.37326653,10.7795168 7.12846852,11.0833331 8.01041717,11.0833331 C8.89930981,11.0833331 9.6579838,10.7795168 10.2864578,10.1718748 C10.9149341,9.5642328 11.2291664,8.82986515 11.2291664,7.96875083 L11.2291664,7.96875083 Z M14.1874994,4.21875058 L14.1874994,2.50000095 C14.1874994,2.30555495 14.118057,2.13715362 13.9791654,1.99479229 C13.840276,1.85243096 13.6701387,1.7812503 13.4687487,1.7812503 L11.6562504,1.7812503 C11.4548604,1.7812503 11.2847231,1.85243096 11.1458338,1.99479229 C11.0069444,2.13715362 10.9374998,2.30555495 10.9374998,2.50000095 L10.9374998,4.21875058 C10.9374998,4.42014057 11.0069444,4.5902779 11.1458338,4.72916723 C11.2847231,4.86805657 11.4548604,4.93750123 11.6562504,4.93750123 L13.4687487,4.93750123 C13.6701387,4.93750123 13.840276,4.86805657 13.9791654,4.72916723 C14.118057,4.5902779 14.1874994,4.42014057 14.1874994,4.21875058 L14.1874994,4.21875058 Z M16,2.05208262 L16,13.9479167 C16,14.5104194 15.7986123,14.9930535 15.3958323,15.3958333 C14.9930524,15.7986131 14.5104187,16 13.9479174,16 L2.05208332,16 C1.4895806,16 1.00694648,15.7986131 0.604166721,15.3958333 C0.201386869,14.9930535 0,14.5104194 0,13.9479167 L0,2.05208262 C0,1.4895813 0.201386869,1.00694765 0.604166721,0.604167654 C1.00694648,0.201387662 1.4895806,0 2.05208332,0 L13.9479174,0 C14.5104187,0 14.9930524,0.201387662 15.3958323,0.604167654 C15.7986123,1.00694765 16,1.4895813 16,2.05208262 L16,2.05208262 Z" id="path-1"></path>
    </defs>
    <g id="ICONS/Instagram" stroke="none" stroke-width="1" fill="none" fill-rule="evenodd">
        <g id="↳-Colors/Green">
            <mask id="mask-2" fill="white">
                <use xlink:href="#path-1"></use>
            </mask>
            <use id="Mask" fill="#000000" xlink:href="#path-1"></use>
        </g>
    </g>
</svg>