<?xml version="1.0" encoding="UTF-8"?>
<svg width="16px" height="16px" viewBox="0 0 16 16" version="1.1" xmlns="http://www.w3.org/2000/svg" xmlns:xlink="http://www.w3.org/1999/xlink">
    <!-- Generator: Sketch 48.1 (47250) - http://www.bohemiancoding.com/sketch -->
    <title>Mask</title>
    <desc>Created with Sketch.</desc>
    <defs>
        <path d="M15.114584,0 C15.3576403,0 15.565972,0.0868046649 15.7395837,0.260416328 C15.9131953,0.434027991 16,0.642359653 16,0.885415982 L16,15.1145833 C16,15.3576401 15.9131953,15.5659713 15.7395837,15.7395834 C15.565972,15.9131953 15.3576403,16 15.114584,16 L11.0416668,16 L11.0416668,9.80208346 L13.1145837,9.80208346 L13.4270824,7.38541751 L11.0416668,7.38541751 L11.0416668,5.84374921 C11.0416668,5.45485955 11.1232634,5.16319523 11.2864591,4.96874923 C11.4496524,4.77430557 11.7673591,4.67708257 12.2395837,4.67708257 L13.5104174,4.66666657 L13.5104174,2.51041695 C13.0729151,2.44791628 12.4548641,2.41666595 11.6562504,2.41666595 C10.7118011,2.41666595 9.95659913,2.69444228 9.3906258,3.2499996 C8.82465015,3.80555925 8.54166582,4.59027324 8.54166582,5.60416722 L8.54166582,7.38541751 L6.45833287,7.38541751 L6.45833287,9.80208346 L8.54166582,9.80208346 L8.54166582,16 L0.885416682,16 C0.642359887,16 0.434028691,15.9131953 0.260416561,15.7395834 C0.0868046882,15.5659713 0,15.3576401 0,15.1145833 L0,0.885415982 C0,0.642359653 0.0868046882,0.434027991 0.260416561,0.260416328 C0.434028691,0.0868046649 0.642359887,0 0.885416682,0 L15.114584,0 Z" id="path-1"></path>
    </defs>
    <g id="ICONS/Facebook" stroke="none" stroke-width="1" fill="none" fill-rule="evenodd">
        <g id="↳-Colors/Green">
            <mask id="mask-2" fill="white">
                <use xlink:href="#path-1"></use>
            </mask>
            <use id="Mask" fill="#62686C" xlink:href="#path-1"></use>
        </g>
    </g>
</svg>