<?xml version="1.0" encoding="UTF-8"?>
<svg width="16px" height="14px" viewBox="0 0 16 14" version="1.1" xmlns="http://www.w3.org/2000/svg" xmlns:xlink="http://www.w3.org/1999/xlink">
    <!-- Generator: Sketch 48.1 (47250) - http://www.bohemiancoding.com/sketch -->
    <title>Mask</title>
    <desc>Created with Sketch.</desc>
    <defs>
        <path d="M6.15384682,9.23076915 C6.15384682,9.48718024 6.11378312,9.74999902 6.03365358,10.0192298 C5.95352619,10.2884627 5.81570587,10.5320498 5.62019263,10.7499997 C5.42467939,10.9679496 5.19230953,11.0769234 4.92307659,11.0769234 C4.65384581,11.0769234 4.42147595,10.9679496 4.22596271,10.7499997 C4.03044731,10.5320498 3.89262915,10.2884627 3.8124996,10.0192298 C3.73237222,9.74999902 3.69230852,9.48718024 3.69230852,9.23076915 C3.69230852,8.97435806 3.73237222,8.71153927 3.8124996,8.44230849 C3.89262915,8.17307555 4.03044731,7.92948846 4.22596271,7.7115386 C4.42147595,7.49358874 4.65384581,7.38461489 4.92307659,7.38461489 C5.19230953,7.38461489 5.42467939,7.49358874 5.62019263,7.7115386 C5.81570587,7.92948846 5.95352619,8.17307555 6.03365358,8.44230849 C6.11378312,8.71153927 6.15384682,8.97435806 6.15384682,9.23076915 L6.15384682,9.23076915 Z M12.3076936,9.23076915 C12.3076936,9.48718024 12.2676299,9.74999902 12.1875004,10.0192298 C12.107373,10.2884627 11.9695527,10.5320498 11.7740394,10.7499997 C11.5785262,10.9679496 11.3461563,11.0769234 11.0769234,11.0769234 C10.8076926,11.0769234 10.5753228,10.9679496 10.3798074,10.7499997 C10.1842941,10.5320498 10.046476,10.2884627 9.96634642,10.0192298 C9.88621903,9.74999902 9.84615534,9.48718024 9.84615534,9.23076915 C9.84615534,8.97435806 9.88621903,8.71153927 9.96634642,8.44230849 C10.046476,8.17307555 10.1842941,7.92948846 10.3798074,7.7115386 C10.5753228,7.49358874 10.8076926,7.38461489 11.0769234,7.38461489 C11.3461563,7.38461489 11.5785262,7.49358874 11.7740394,7.7115386 C11.9695527,7.92948846 12.107373,8.17307555 12.1875004,8.44230849 C12.2676299,8.71153927 12.3076936,8.97435806 12.3076936,9.23076915 L12.3076936,9.23076915 Z M13.8461537,9.23076915 C13.8461537,8.46153372 13.6250032,7.80769491 13.1826937,7.26923119 C12.7403841,6.73076531 12.1410312,6.46153883 11.3846154,6.46153883 C11.1217945,6.46153883 10.4968,6.52884438 9.50961686,6.66346192 C9.05448545,6.73397454 8.55128449,6.76923085 8.00000108,6.76923085 C7.44871551,6.76923085 6.94551455,6.73397454 6.4903853,6.66346192 C5.51602186,6.52884438 4.89102736,6.46153883 4.61538457,6.46153883 C3.85897099,6.46153883 3.25961803,6.73076531 2.81730847,7.26923119 C2.37499891,7.80769491 2.15384628,8.46153372 2.15384628,9.23076915 C2.15384628,9.79487441 2.25641028,10.286856 2.4615383,10.7067311 C2.66666846,11.126604 2.92628017,11.4567296 3.24038419,11.6971155 C3.55448821,11.9375013 3.94551038,12.129807 4.41346149,12.2740385 C4.88141259,12.4182699 5.33012554,12.5128204 5.75961541,12.5576925 C6.18910528,12.6025645 6.66666469,12.6250002 7.19230872,12.6250002 L8.80769343,12.6250002 C9.33333746,12.6250002 9.81089687,12.6025645 10.2403846,12.5576925 C10.6698745,12.5128204 11.1185874,12.4182699 11.5865385,12.2740385 C12.0544896,12.129807 12.4455118,11.9375013 12.7596158,11.6971155 C13.0737198,11.4567296 13.3333337,11.126604 13.5384617,10.7067311 C13.7435919,10.286856 13.8461537,9.79487441 13.8461537,9.23076915 L13.8461537,9.23076915 Z M16,7.53846197 C16,8.86539067 15.8044911,9.92627842 15.4134624,10.7211532 C15.169871,11.2147459 14.8317344,11.6410239 14.3990396,12.0000001 C13.9663448,12.3589763 13.5144269,12.6346145 13.0432709,12.8269233 C12.5721127,13.0192318 12.0272478,13.1714739 11.4086545,13.2836539 C10.7900612,13.395834 10.2403867,13.4663462 9.75961595,13.4951925 C9.27884515,13.5240388 8.74359281,13.5384617 8.15384601,13.5384617 C7.65384352,13.5384617 7.19872072,13.5288464 6.78846255,13.5096155 C6.37820437,13.4903847 5.90545234,13.450321 5.37019354,13.3894232 C4.83493259,13.3285255 4.34615594,13.2323726 3.90384638,13.1009617 C3.46153682,12.9695508 3.02243864,12.8044884 2.58653892,12.6057694 C2.15063899,12.4070503 1.76282238,12.1474376 1.42307704,11.8269231 C1.08333169,11.5064088 0.807693431,11.1378234 0.59615385,10.7211532 C0.198715968,9.93268827 0,8.87180051 0,7.53846197 C0,6.01922281 0.435893041,4.75000427 1.30769248,3.73076975 C1.13461456,3.20512572 1.04807689,2.66025862 1.04807689,2.09615335 C1.04807689,1.35255946 1.21153681,0.653849576 1.5384616,0 C2.23077305,0 2.83974078,0.12660093 3.36538481,0.379807099 C3.89102884,0.633013267 4.49679164,1.02884283 5.18269261,1.56730655 C6.12500466,1.34294685 7.1153798,1.23076807 8.15384601,1.23076807 C9.10257006,1.23076807 9.99999596,1.33333208 10.8461539,1.53846009 C11.5192351,1.01281821 12.1185881,0.625000959 12.6442321,0.374999714 C13.1698761,0.124998469 13.7756389,0 14.4615399,0 C14.7884636,0.653849576 14.9519233,1.35255946 14.9519233,2.09615335 C14.9519233,2.65384877 14.8653861,3.19230388 14.6923095,3.71153806 C15.5641067,4.73718458 16,6.01281296 16,7.53846197 L16,7.53846197 Z" id="path-1"></path>
    </defs>
    <g id="ICONS/Github" stroke="none" stroke-width="1" fill="none" fill-rule="evenodd">
        <g id="↳-Colors/Green">
            <mask id="mask-2" fill="white">
                <use xlink:href="#path-1"></use>
            </mask>
            <use id="Mask" fill="#000000" xlink:href="#path-1"></use>
        </g>
    </g>
</svg>