<?xml version="1.0" encoding="UTF-8"?>
<svg width="10px" height="12px" viewBox="0 0 10 12" version="1.1" xmlns="http://www.w3.org/2000/svg" xmlns:xlink="http://www.w3.org/1999/xlink">
    <!-- Generator: Sketch 47.1 (45422) - http://www.bohemiancoding.com/sketch -->
    <title>Shape</title>
    <desc>Created with Sketch.</desc>
    <defs>
        <path d="M12,6 L11.4285714,6 L11.4285714,4.85714286 C11.4285714,3.28 10.1485714,2 8.57142857,2 C6.99428571,2 5.71428571,3.28 5.71428571,4.85714286 L5.71428571,6 L5.14285714,6 C4.51428571,6 4,6.51428571 4,7.14285714 L4,12.8571429 C4,13.4857143 4.51428571,14 5.14285714,14 L12,14 C12.6285714,14 13.1428571,13.4857143 13.1428571,12.8571429 L13.1428571,7.14285714 C13.1428571,6.51428571 12.6285714,6 12,6 Z M8.57142857,11.1428571 C7.94285714,11.1428571 7.42857143,10.6285714 7.42857143,10 C7.42857143,9.37142857 7.94285714,8.85714286 8.57142857,8.85714286 C9.2,8.85714286 9.71428571,9.37142857 9.71428571,10 C9.71428571,10.6285714 9.2,11.1428571 8.57142857,11.1428571 Z M10.3428571,6 L6.8,6 L6.8,4.85714286 C6.8,3.88 7.59428571,3.08571429 8.57142857,3.08571429 C9.54857143,3.08571429 10.3428571,3.88 10.3428571,4.85714286 L10.3428571,6 Z" id="path-1"></path>
    </defs>
    <g id="icons" stroke="none" stroke-width="1" fill="none" fill-rule="evenodd">
        <g id="Icon/Lock" transform="translate(-4.000000, -2.000000)">
            <mask id="mask-2" fill="white">
                <use xlink:href="#path-1"></use>
            </mask>
            <use id="Shape" fill="#4A4A4A" fill-rule="nonzero" xlink:href="#path-1"></use>
        </g>
    </g>
</svg>