<?xml version="1.0" encoding="UTF-8"?>
<svg width="16px" height="13px" viewBox="0 0 16 13" version="1.1" xmlns="http://www.w3.org/2000/svg" xmlns:xlink="http://www.w3.org/1999/xlink">
    <!-- Generator: Sketch 48.1 (47250) - http://www.bohemiancoding.com/sketch -->
    <title>Mask</title>
    <desc>Created with Sketch.</desc>
    <defs>
        <path d="M16,1.54375122 C15.5465307,2.20729589 14.9983129,2.77265384 14.3553305,3.23984326 C14.3620983,3.33463568 14.3654822,3.47682318 14.3654822,3.66640574 C14.3654822,4.54661912 14.236888,5.42512625 13.979695,6.30195443 C13.7225044,7.17878034 13.3316437,8.020048 12.8071061,8.82578243 C12.2825709,9.63151459 11.6582112,10.3441378 10.9340112,10.9636719 C10.2098113,11.5832063 9.3367229,12.0774721 8.31472115,12.4464843 C7.2927194,12.8154966 6.19966758,13 5.03553385,13 C3.20134445,13 1.5228503,12.5091194 0,11.5273439 C0.236887855,11.5544273 0.50084469,11.5679688 0.791878237,11.5679688 C2.3147274,11.5679688 3.67173765,11.100786 4.86294468,10.1664057 C4.15228021,10.1528649 3.51607698,9.93450818 2.95431452,9.51132862 C2.39255206,9.08814907 2.00676923,8.54818012 1.79695445,7.89140586 C2.02030566,7.92526013 2.22673338,7.9421884 2.41624375,7.9421884 C2.70727775,7.9421884 2.99492333,7.90494893 3.2791873,7.83046998 C2.52114625,7.67473942 1.89340363,7.29726916 1.39593918,6.69804784 C0.898474725,6.09882652 0.649746252,5.40312928 0.649746252,4.61093792 L0.649746252,4.57031325 C1.10998531,4.82760663 1.60405838,4.96640665 2.13197978,4.98672013 C1.68527692,4.68880207 1.32995059,4.29948134 1.06598989,3.81875111 C0.80202919,3.33801861 0.670050886,2.81667053 0.670050886,2.25468869 C0.670050886,1.65885257 0.818949491,1.10703542 1.11675125,0.599219045 C1.93570643,1.60807912 2.93231248,2.4154925 4.10660013,3.02148422 C5.28088549,3.62747822 6.53806451,3.9643238 7.87817356,4.03203235 C7.82402696,3.77473896 7.79695366,3.52422052 7.79695366,3.28047021 C7.79695366,2.37317296 8.11674835,1.59961385 8.75634456,0.959765577 C9.39594304,0.319919584 10.1692002,0 11.0761432,0 C12.0236928,0 12.8223313,0.345308583 13.4720814,1.03593712 C14.2098192,0.89374963 14.9035507,0.629690394 15.5533008,0.243750313 C15.3028756,1.02240087 14.8223399,1.62499829 14.1116754,2.05156305 C14.7411199,1.9838545 15.3705554,1.81458541 16,1.54375122 L16,1.54375122 Z" id="path-1"></path>
    </defs>
    <g id="ICONS/Twitter" stroke="none" stroke-width="1" fill="none" fill-rule="evenodd">
        <g id="↳-Colors/Green">
            <mask id="mask-2" fill="white">
                <use xlink:href="#path-1"></use>
            </mask>
            <use id="Mask" fill="#62686C" xlink:href="#path-1"></use>
        </g>
    </g>
</svg>