<?xml version="1.0" encoding="UTF-8"?>
<svg width="16px" height="16px" viewBox="0 0 16 16" version="1.1" xmlns="http://www.w3.org/2000/svg" xmlns:xlink="http://www.w3.org/1999/xlink">
    <!-- Generator: Sketch 48.1 (47250) - http://www.bohemiancoding.com/sketch -->
    <title>Mask</title>
    <desc>Created with Sketch.</desc>
    <defs>
        <path d="M8,0 C9.08854711,0 10.1262971,0.210935391 11.1132812,0.6328125 C12.1002654,1.05468961 12.9505173,1.62239227 13.6640625,2.3359375 C14.3776077,3.04948273 14.9453104,3.89973465 15.3671875,4.88671875 C15.7890646,5.87370285 16,6.91145289 16,8 C16,9.08854711 15.7890646,10.1262971 15.3671875,11.1132812 C14.9453104,12.1002654 14.3776077,12.9505173 13.6640625,13.6640625 C12.9505173,14.3776077 12.1002654,14.9453104 11.1132812,15.3671875 C10.1262971,15.7890646 9.08854711,16 8,16 C6.91145289,16 5.87370285,15.7890646 4.88671875,15.3671875 C3.89973465,14.9453104 3.04948273,14.3776077 2.3359375,13.6640625 C1.62239227,12.9505173 1.05468961,12.1002654 0.6328125,11.1132812 C0.210935391,10.1262971 0,9.08854711 0,8 C0,6.91145289 0.210935391,5.87370285 0.6328125,4.88671875 C1.05468961,3.89973465 1.62239227,3.04948273 2.3359375,2.3359375 C3.04948273,1.62239227 3.89973465,1.05468961 4.88671875,0.6328125 C5.87370285,0.210935391 6.91145289,0 8,0 L8,0 Z M9,14.3359375 C9.25520961,14.3359375 9.55208164,14.234376 9.890625,14.03125 C10.2291684,13.828124 10.555988,13.5572934 10.8710938,13.21875 C11.1861995,12.8802066 11.4531239,12.4531276 11.671875,11.9375 C11.8906261,11.4218724 12,10.8880236 12,10.3359375 C12,9.68489258 11.7734398,9.13281477 11.3203125,8.6796875 C10.8671852,8.22656023 10.3151074,8 9.6640625,8 L8.3359375,8 C7.84114336,8 7.43880363,7.88932402 7.12890625,7.66796875 C6.81900887,7.44661348 6.6640625,7.1692725 6.6640625,6.8359375 C6.6640625,6.60156133 6.74609293,6.40364664 6.91015625,6.2421875 C7.07421957,6.08072836 7.27083219,6 7.5,6 C7.65104242,6 7.78255152,6.0351559 7.89453125,6.10546875 C8.00651098,6.1757816 8.09244762,6.25130168 8.15234375,6.33203125 C8.21223988,6.41276082 8.28645789,6.4882809 8.375,6.55859375 C8.46354211,6.6289066 8.55989531,6.6640625 8.6640625,6.6640625 C8.85156344,6.6640625 9.01041602,6.59895898 9.140625,6.46875 C9.27083398,6.33854102 9.3359375,6.18229258 9.3359375,6 C9.3359375,5.79687398 9.3007816,5.60937586 9.23046875,5.4375 C9.1601559,5.26562414 9.08854203,5.13411504 9.015625,5.04296875 C8.94270797,4.95182246 8.83854234,4.83854234 8.703125,4.703125 C9.10937703,3.94270453 9.32031242,3.07292156 9.3359375,2.09375 C9.3359375,2.01041625 9.30989609,1.93619824 9.2578125,1.87109375 C9.20572891,1.80598926 9.13802125,1.76822922 9.0546875,1.7578125 C8.65364383,1.69531219 8.30208484,1.6640625 8,1.6640625 C6.57290953,1.71093773 5.43880629,2.05859051 4.59765625,2.70703125 C3.75650621,3.35547199 3.3359375,4.23176531 3.3359375,5.3359375 C3.3359375,5.99219078 3.50130043,6.60155969 3.83203125,7.1640625 C4.16276207,7.72656531 4.60937219,8.17317543 5.171875,8.50390625 C5.73437781,8.83463707 6.34374672,9 7,9 L7.0546875,9 C7.01822898,9.15104242 7,9.31770742 7,9.5 C7,10.0052109 7.15624844,10.4557272 7.46875,10.8515625 C7.78125156,11.2473978 8.17968508,11.4999995 8.6640625,11.609375 L8.6640625,14 C8.6640625,14.0937505 8.69661426,14.1731768 8.76171875,14.2382812 C8.82682324,14.3033857 8.90624953,14.3359375 9,14.3359375 L9,14.3359375 Z" id="path-1"></path>
    </defs>
    <g id="ICONS/Web" stroke="none" stroke-width="1" fill="none" fill-rule="evenodd">
        <g id="↳-Colors/Green">
            <mask id="mask-2" fill="white">
                <use xlink:href="#path-1"></use>
            </mask>
            <use id="Mask" fill="#1B1F20" xlink:href="#path-1"></use>
        </g>
    </g>
</svg>