<?xml version="1.0" encoding="UTF-8"?>
<svg width="150px" height="20px" viewBox="0 0 150 20" version="1.1" xmlns="http://www.w3.org/2000/svg" xmlns:xlink="http://www.w3.org/1999/xlink">
    <!-- Generator: Sketch 46.1 (44463) - http://www.bohemiancoding.com/sketch -->
    <title>logo-light</title>
    <desc>Created with Sketch.</desc>
    <defs></defs>
    <g id="HOME-&amp;-ABOUT" stroke="none" stroke-width="1" fill="none" fill-rule="evenodd">
        <g id="D---00-Home" transform="translate(-54.000000, -48.000000)" fill="#FFFFFF">
            <g id="NAV" transform="translate(54.000000, 34.000000)">
                <g id="logo-light" transform="translate(0.000000, 14.000000)">
                    <path d="M6.89719687,19.8218428 C4.46678483,19.8218428 1.99829502,18.8948461 -0.000131302649,16.8438988 L2.03899884,14.3360182 C3.42292877,16.0075009 5.29005244,16.8438988 6.91032714,16.8438988 C9.00066532,16.8438988 10.0707819,15.9300323 10.0707819,14.5185288 C10.0707819,12.8733066 8.80371134,12.3362788 6.40087286,11.4880637 C3.52665786,10.4691551 0.666886157,9.17582403 0.666886157,5.71337316 C0.666886157,2.72361184 3.38222495,0.410059153 6.66216513,0.398241914 C8.90875346,0.385111649 11.0371694,1.2201965 12.9581272,2.7367421 L11.0371694,5.26957021 C9.48385907,3.97755214 7.96731347,3.32366494 6.66216513,3.32366494 C5.19814059,3.32366494 4.03611214,4.13380229 4.01116464,5.54399275 C3.98490411,6.9292357 5.26510494,7.41242945 7.56421433,8.30134838 C10.816581,9.56841895 13.4426339,10.4691551 13.4426339,14.1403772 C13.4426339,18.0597613 9.92897505,19.8218428 6.8985099,19.8218428 L6.89719687,19.8218428 Z" id="Fill-1"></path>
                    <path d="M16.1743856,10.1825214 C16.1743856,4.76103505 19.6092629,0.397848006 25.762105,0.397848006 C28.3605845,0.397848006 31.1704612,1.48240789 33.2463561,4.04280956 L30.8684651,6.05436614 C29.6420983,4.53913357 27.7999222,3.45457369 25.762105,3.45457369 C22.0777527,3.45457369 19.5436116,6.146278 19.5436116,10.1825214 C19.5436116,14.074332 22.144717,16.7397758 25.762105,16.7397758 C27.9049643,16.7397758 29.6670458,15.6552159 30.8684651,14.1531136 L33.2463561,16.1778004 C31.6142641,18.2287478 29.1063835,19.7833712 25.762105,19.7833712 C20.5887806,19.7833712 16.1743856,16.4141452 16.1743856,10.1825214" id="Fill-4"></path>
                    <path d="M64.2215702,9.92096657 C66.8738837,9.92096657 68.0621727,8.58824467 68.0621727,6.70799073 C68.0621727,4.70956441 66.7688416,3.50683214 64.4434717,3.50683214 L61.2554433,3.50683214 L61.2554433,9.92096657 L64.2215702,9.92096657 Z M58.0293372,0.60766964 L64.9135351,0.60766964 C69.4592329,0.60766964 71.4064512,3.2324096 71.4064512,6.77232903 C71.4064512,10.8873541 68.6359653,12.8345724 64.5353835,12.8345724 L61.2554433,12.8345724 L61.2554433,19.6137281 L58.0293372,19.6137281 L58.0293372,0.60766964 Z" id="Fill-6"></path>
                    <polygon id="Fill-8" points="74.8694272 0.607275732 86.8219074 0.607275732 86.8219074 3.50643823 78.0955333 3.50643823 78.0955333 8.74541395 85.1491117 8.74541395 85.1491117 11.6445764 78.0955333 11.6445764 78.0955333 16.7141717 87.3825697 16.7141717 87.3825697 19.6133342 74.8694272 19.6133342"></polygon>
                    <path d="M96.8023531,19.8218428 C94.3732541,19.8218428 91.9047643,18.8948461 89.906338,16.8438988 L91.9441551,14.3360182 C93.328085,16.0075009 95.1965217,16.8438988 96.8154834,16.8438988 C98.9058215,16.8438988 99.9772512,15.9300323 99.9772512,14.5185288 C99.9772512,12.8733066 98.7101806,12.3362788 96.3073421,11.4880637 C93.4331271,10.4691551 90.5720424,9.17582403 90.5720424,5.71337316 C90.5720424,2.72361184 93.2886942,0.410059153 96.5673214,0.398241914 C98.8152227,0.385111649 100.943639,1.2201965 102.864596,2.7367421 L100.943639,5.26957021 C99.3903283,3.97755214 97.8737827,3.32366494 96.5673214,3.32366494 C95.1046098,3.32366494 93.9425814,4.13380229 93.9163209,5.54399275 C93.8900603,6.9292357 95.1715742,7.41242945 97.4693706,8.30134838 C100.721737,9.56841895 103.34779,10.4691551 103.34779,14.1403772 C103.34779,18.0597613 99.8341313,19.8218428 96.8036661,19.8218428 L96.8023531,19.8218428 Z" id="Fill-10"></path>
                    <polygon id="Fill-12" points="106.250104 12.0625128 114.087559 12.0625128 114.087559 10.6260618 106.250104 10.6260618"></polygon>
                    <path d="M123.755373,17.4971294 C128.314201,17.4971294 131.279015,14.4141432 131.279015,10.142868 C131.279015,5.79281127 128.286628,2.72295532 123.859102,2.72295532 L120.462303,2.72295532 L120.462303,17.4971294 L123.755373,17.4971294 Z M118.138246,0.60766964 L123.819711,0.60766964 C129.842564,0.60766964 133.683166,4.5257407 133.683166,10.142868 C133.683166,15.7468651 129.959423,19.6137281 123.898493,19.6137281 L118.136933,19.6137281 L118.138246,0.60766964 Z" id="Fill-14"></path>
                    <polygon id="Fill-15" points="137.680544 0.606619219 149.802405 0.606619219 149.802405 2.74947846 140.005914 2.74947846 140.005914 9.42490516 148.326563 9.42490516 148.326563 11.5664514 140.005914 11.5664514 140.005914 19.6139908 137.680544 19.6139908"></polygon>
                    <path d="M45.3174025,18.7896727 L43.309785,17.6302703 L43.309785,15.3495433 C43.3806884,15.3206567 43.4502789,15.2878311 43.5185562,15.2471272 C44.6214985,14.6063703 44.7370448,12.7471248 43.7745964,11.0927114 C42.814774,9.43829803 41.1406652,8.61634344 40.037723,9.25578734 C38.9360938,9.89654427 38.8205474,11.7584158 39.7803698,13.4115162 C39.9234897,13.6557391 40.0797398,13.8802667 40.2478072,14.0850988 L40.2478072,15.8629367 L37.9106201,14.5144585 L37.9106201,5.95746479 L37.0558398,5.46376683 C36.3244841,6.82931438 35.9043156,8.3865638 35.9043156,10.0436032 C35.9043156,15.3101525 40.0902441,19.597184 45.3174025,19.7665644 L45.3174025,18.7896727 Z" id="Fill-16"></path>
                    <path d="M54.216177,5.46639288 L53.3587707,5.96140387 L53.3587707,8.6688645 L51.7476872,9.58141791 C51.6308278,9.44486316 51.4942731,9.3280038 51.3367099,9.23609195 C50.2337676,8.59533502 48.5596588,9.4172896 47.5998365,11.071703 C46.6387011,12.7261164 46.7529344,14.5866749 47.8558766,15.2274318 C48.9588189,15.8681888 50.6329277,15.0462342 51.5940631,13.3918208 C51.8002082,13.0346776 51.9577714,12.6670302 52.0654396,12.3046349 L53.3587707,11.5562098 L53.3587707,14.5144585 L45.9664315,18.7831076 L45.9664315,19.7665644 C51.1870249,19.5906189 55.3663882,15.3062134 55.3663882,10.0436032 C55.3663882,8.38787683 54.9462197,6.83194043 54.216177,5.46639288" id="Fill-17"></path>
                    <path d="M38.2483305,5.40166067 L40.554005,4.07156484 L42.0311598,4.92634508 C41.9786388,5.08784734 41.9497522,5.25328868 41.9497522,5.42529515 C41.9497522,6.70024388 43.5004365,7.73359573 45.4135161,7.73359573 C47.3265957,7.73359573 48.878593,6.70024388 48.878593,5.42529515 C48.878593,4.1490334 47.3265957,3.11568155 45.4135161,3.11568155 C44.9867825,3.11568155 44.5784312,3.16688958 44.2002796,3.26142749 L43.0697638,2.61804451 L45.6354175,1.13695062 L53.0251307,5.40428673 C53.3455091,5.21914999 53.637001,5.0510826 53.8904151,4.90402363 C52.1716634,2.14929405 49.1215029,0.313683008 45.6354175,0.313683008 C42.1506452,0.313683008 39.0991717,2.14798102 37.381733,4.90139758 C37.6417122,5.05239563 37.9332041,5.21914999 38.2483305,5.40166067" id="Fill-18"></path>
                </g>
            </g>
        </g>
    </g>
</svg>