<?xml version="1.0" encoding="UTF-8"?>
<svg width="31px" height="30px" viewBox="0 0 31 30" version="1.1" xmlns="http://www.w3.org/2000/svg" xmlns:xlink="http://www.w3.org/1999/xlink">
    <!-- Generator: Sketch 47.1 (45422) - http://www.bohemiancoding.com/sketch -->
    <title>logo-small</title>
    <desc>Created with Sketch.</desc>
    <defs></defs>
    <g id="HOME-&amp;-ABOUT" stroke="none" stroke-width="1" fill="none" fill-rule="evenodd">
        <g id="M---00-Home" transform="translate(-32.000000, -21.000000)" fill="#FFFFFF">
            <g id="NAV" transform="translate(32.000000, 20.000000)">
                <g id="logo-small">
                    <path d="M14.8359204,29.1479322 L11.7766937,27.3812238 L11.7766937,23.9058302 C11.884737,23.8618125 11.9907795,23.8117925 12.0948213,23.7497676 C13.7754952,22.7733761 13.9515658,19.9402401 12.4849777,17.4192292 C11.0223912,14.8982183 8.47136834,13.6457161 6.79069442,14.6201068 C5.11202131,15.5964983 4.93595071,18.433636 6.39853718,20.952646 C6.61662463,21.3247953 6.8547201,21.6669324 7.11082279,21.9790576 L7.11082279,24.6881439 L3.54939473,22.6333199 L3.54939473,9.59409151 L2.24687245,8.84178985 C1.13242558,10.9226242 0.492168854,13.2955757 0.492168854,15.8205882 C0.492168854,23.8458061 6.87072651,30.3784256 14.8359204,30.6365291 L14.8359204,29.1479322 Z" id="Fill-16"></path>
                    <path d="M28.3959577,8.84579145 L27.0894338,9.60009391 L27.0894338,13.7257482 L24.6344494,15.1163058 C24.456378,14.9082224 24.2482945,14.730151 24.0081983,14.5900948 C22.3275243,13.6137033 19.7765014,14.8662055 18.313915,17.3872164 C16.8493277,19.9082272 17.0233975,22.7433641 18.7040714,23.7197556 C20.3847453,24.6961471 22.9357682,23.4436449 24.4003555,20.922634 C24.7144815,20.3784158 24.9545777,19.8181911 25.1186435,19.2659697 L27.0894338,18.1255124 L27.0894338,22.6333199 L15.8249169,29.1379282 L15.8249169,30.6365291 C23.7801068,30.3684216 30.1486605,23.8398037 30.1486605,15.8205882 C30.1486605,13.2975765 29.5084037,10.9266258 28.3959577,8.84579145" id="Fill-17"></path>
                    <path d="M4.06400108,8.7471519 L7.57740988,6.7203392 L9.82831244,8.02286148 C9.74828035,8.26896016 9.7042627,8.52106125 9.7042627,8.78316634 C9.7042627,10.7259454 12.0672102,12.3005767 14.9823791,12.3005767 C17.897548,12.3005767 20.2624963,10.7259454 20.2624963,8.78316634 C20.2624963,6.83838653 17.897548,5.26375514 14.9823791,5.26375514 C14.3321184,5.26375514 13.7098689,5.34178643 13.1336378,5.48584419 L11.410947,4.50545107 L15.3205147,2.24854611 L26.5810299,8.75115351 C27.0692257,8.46904039 27.5134038,8.21293769 27.8995586,7.98884784 C25.2805084,3.79116466 20.6326447,0.994043077 15.3205147,0.994043077 C10.0103854,0.994043077 5.36052096,3.78916386 2.74347158,7.98484623 C3.13963043,8.2149385 3.58380853,8.46904039 4.06400108,8.7471519" id="Fill-18"></path>
                </g>
            </g>
        </g>
    </g>
</svg>