<?xml version="1.0" encoding="UTF-8"?>
<svg width="31px" height="31px" viewBox="0 0 31 31" version="1.1" xmlns="http://www.w3.org/2000/svg" xmlns:xlink="http://www.w3.org/1999/xlink">
    <!-- Generator: Sketch 47.1 (45422) - http://www.bohemiancoding.com/sketch -->
    <title>logo-small</title>
    <desc>Created with Sketch.</desc>
    <defs></defs>
    <g id="Symbols" stroke="none" stroke-width="1" fill="none" fill-rule="evenodd">
        <g id="LOGO/Logo" transform="translate(-14.000000, -11.000000)">
            <g id="logo-small" transform="translate(14.000000, 11.000000)">
                <path d="M14.9767333,29.2562957 L11.7885904,27.4560525 L11.7885904,23.9146909 C11.9011866,23.8698377 12.0116978,23.8188682 12.1201239,23.755666 C13.8716216,22.7607411 14.0551119,19.873828 12.5267216,17.3049646 C11.0025015,14.7361012 8.34397808,13.4598246 6.59248032,14.4527107 C4.84306767,15.4476356 4.65957742,18.3386263 6.1837975,20.9054509 C6.41107519,21.2846641 6.65920404,21.6332955 6.92609894,21.9513453 L6.92609894,24.711854 L3.21459177,22.6180265 L3.21459177,9.33129417 L1.857181,8.56471271 C0.695771168,10.6850444 0.028533924,13.103038 0.028533924,15.675979 C0.028533924,23.8535274 6.67588497,30.5101457 14.9767333,30.7731484 L14.9767333,29.2562957 Z" id="Fill-16" fill="#208D66"></path>
                <path d="M29.1081926,8.56879027 L27.7466116,9.33741051 L27.7466116,13.5413758 L25.1881738,14.9583283 C25.0025984,14.7462951 24.7857463,14.5648436 24.5355324,14.422129 C22.7840346,13.4272041 20.1255112,14.7034807 18.6012911,17.2723441 C17.0749859,19.8412075 17.2563911,22.7301594 19.0078888,23.7250843 C20.7593866,24.7200091 23.41791,23.4437326 24.9442152,20.8748692 C25.2715785,20.3203209 25.5217924,19.7494624 25.692772,19.186759 L27.7466116,18.0246541 L27.7466116,22.6180265 L16.0074063,29.2461018 L16.0074063,30.7731484 C24.2978291,30.4999518 30.9347546,23.8474111 30.9347546,15.675979 C30.9347546,13.1050768 30.2675173,10.689122 29.1081926,8.56879027" id="Fill-17" fill="#487EA8"></path>
                <path d="M3.7508837,8.4682784 L7.41234808,6.40299378 L9.75810402,7.73023987 C9.67469936,7.98100986 9.6288268,8.2378962 9.6288268,8.50497645 C9.6288268,10.4846323 12.0913493,12.0891525 15.1293638,12.0891525 C18.1673784,12.0891525 20.631986,10.4846323 20.631986,8.50497645 C20.631986,6.52328183 18.1673784,4.9187616 15.1293638,4.9187616 C14.451701,4.9187616 13.8032298,4.99827404 13.2027163,5.14506623 L11.4074311,4.1460638 L15.4817485,1.84631943 L27.2167835,8.47235596 C27.7255519,8.18488791 28.1884478,7.92392401 28.5908752,7.6955806 C25.8614579,3.41821918 21.0177325,0.56800408 15.4817485,0.56800408 C9.94784961,0.56800408 5.10203912,3.4161804 2.37470688,7.69150304 C2.78755993,7.92596279 3.25045577,8.18488791 3.7508837,8.4682784" id="Fill-18" fill="#FF6B6B"></path>
            </g>
        </g>
    </g>
</svg>