<?xml version="1.0" encoding="UTF-8"?>
<svg width="16px" height="17px" viewBox="0 0 16 17" version="1.1" xmlns="http://www.w3.org/2000/svg" xmlns:xlink="http://www.w3.org/1999/xlink">
    <!-- Generator: Sketch 46.2 (44496) - http://www.bohemiancoding.com/sketch -->
    <title>Slack</title>
    <desc>Created with Sketch.</desc>
    <defs></defs>
    <g id="HOME-&amp;-ABOUT" stroke="none" stroke-width="1" fill="none" fill-rule="evenodd">
        <g id="D---00-Home" transform="translate(-1226.000000, -4297.000000)" fill="#333333">
            <g id="FOOTER" transform="translate(0.000000, 4156.000000)">
                <path d="M1241.91656,149.921364 C1241.80189,149.551108 1241.55004,149.244257 1241.21726,149.06936 C1240.88448,148.894463 1240.49851,148.866093 1240.14556,148.990587 L1238.66056,149.519176 L1237.65456,146.352864 L1239.10056,145.83681 C1239.83895,145.569475 1240.23178,144.729127 1239.97956,143.956453 C1239.86487,143.586175 1239.61307,143.279263 1239.28034,143.104197 C1238.94761,142.92913 1238.56165,142.900478 1238.20856,143.024632 L1236.76256,143.540685 L1236.27556,142.008194 C1236.1611,141.637746 1235.90933,141.330649 1235.57653,141.155543 C1235.24373,140.980437 1234.85764,140.951923 1234.50456,141.076373 L1234.50456,141.076373 C1233.76736,141.345092 1233.37512,142.184173 1233.62556,142.95673 L1234.11256,144.490266 L1231.06056,145.577739 L1230.57956,144.064051 C1230.46488,143.693527 1230.21292,143.38642 1229.87996,143.211329 C1229.547,143.036238 1229.16078,143.00775 1228.80756,143.13223 C1228.07036,143.400949 1227.67812,144.24003 1227.92856,145.012587 L1228.40956,146.527319 L1226.95456,147.049641 C1226.21736,147.31836 1225.82512,148.157441 1226.07556,148.929998 L1226.07556,148.929998 C1226.19,149.300425 1226.44182,149.607461 1226.77468,149.782397 C1227.10753,149.957334 1227.49363,149.985565 1227.84656,149.860775 L1229.30156,149.338453 L1230.30756,152.497453 L1228.89156,153.002016 C1228.15436,153.270735 1227.76212,154.109816 1228.01256,154.882373 C1228.12726,155.252651 1228.37906,155.559563 1228.71179,155.734629 C1229.04452,155.909696 1229.43048,155.938348 1229.78356,155.814194 L1231.19956,155.308587 L1231.71656,156.935096 C1231.83123,157.305352 1232.08309,157.612203 1232.41587,157.7871 C1232.74865,157.961997 1233.13462,157.990367 1233.48756,157.865873 C1234.22477,157.597154 1234.61701,156.758073 1234.36656,155.985516 L1233.85056,154.361096 L1236.90256,153.272578 L1237.41356,154.879239 C1237.52826,155.249517 1237.78006,155.556429 1238.11279,155.731495 C1238.44552,155.906562 1238.83148,155.935214 1239.18456,155.81106 C1239.92216,155.542801 1240.3146,154.703299 1240.06356,153.930703 L1239.55356,152.324042 L1241.03756,151.794409 C1241.77151,151.526128 1242.16307,150.691757 1241.91656,149.921364 Z M1232.95856,151.557275 L1231.95256,148.390962 L1235.00456,147.302444 L1236.01056,150.468757 L1232.95856,151.557275 Z" id="Slack"></path>
            </g>
        </g>
    </g>
</svg>