<?xml version="1.0" encoding="UTF-8"?>
<svg width="16px" height="14px" viewBox="0 0 16 14" version="1.1" xmlns="http://www.w3.org/2000/svg" xmlns:xlink="http://www.w3.org/1999/xlink">
    <!-- Generator: Sketch 46.2 (44496) - http://www.bohemiancoding.com/sketch -->
    <title>Twitter</title>
    <desc>Created with Sketch.</desc>
    <defs></defs>
    <g id="HOME-&amp;-ABOUT" stroke="none" stroke-width="1" fill="none" fill-rule="evenodd">
        <g id="D---00-Home" transform="translate(-1260.000000, -4298.000000)" fill="#333333">
            <g id="FOOTER" transform="translate(0.000000, 4156.000000)">
                <path d="M1275.752,143.659938 C1275.16435,143.944913 1274.53787,144.132753 1273.895,144.216732 C1274.57841,143.763449 1275.08309,143.06866 1275.317,142.259071 C1274.68669,142.669931 1273.99158,142.960671 1273.264,143.117768 C1272.66693,142.410425 1271.80876,142.003625 1270.906,142 C1269.07844,142.046189 1267.63208,143.630046 1267.674,145.53925 C1267.67335,145.810145 1267.70152,146.080276 1267.758,146.34467 C1265.128,146.185218 1262.69531,144.835609 1261.096,142.648723 C1260.80805,143.192198 1260.65764,143.803451 1260.659,144.424616 C1260.65032,145.592376 1261.18693,146.691293 1262.097,147.369464 C1261.58128,147.350773 1261.07813,147.198189 1260.633,146.925491 L1260.633,146.970411 C1260.60643,148.620646 1261.68624,150.066356 1263.225,150.440714 C1262.74997,150.58259 1262.2493,150.603367 1261.765,150.501304 C1262.15631,151.916501 1263.37472,152.908098 1264.784,152.958304 C1263.65572,153.935467 1262.23661,154.471119 1260.771,154.473036 C1260.51325,154.473246 1260.25574,154.456499 1260,154.422893 C1261.46214,155.45811 1263.18768,156.011906 1264.954,156.012839 C1270.898,156.012839 1274.148,150.621437 1274.148,145.946661 C1274.148,145.792054 1274.148,145.64058 1274.139,145.489107 C1274.77589,144.983719 1275.322,144.36442 1275.752,143.659938 L1275.752,143.659938 Z" id="Twitter"></path>
            </g>
        </g>
    </g>
</svg>