<?xml version="1.0" encoding="UTF-8"?>
<svg width="270px" height="140px" viewBox="0 0 270 140" version="1.1" xmlns="http://www.w3.org/2000/svg" xmlns:xlink="http://www.w3.org/1999/xlink">
    <!-- Generator: Sketch 46.2 (44496) - http://www.bohemiancoding.com/sketch -->
    <title>2</title>
    <desc>Created with Sketch.</desc>
    <defs></defs>
    <g id="HOME-&amp;-ABOUT" stroke="none" stroke-width="1" fill="none" fill-rule="evenodd">
        <g id="D---00-Home" transform="translate(-592.000000, -2247.000000)">
            <g id="3-COL" transform="translate(216.000000, 2106.000000)">
                <g id="2" transform="translate(376.000000, 141.000000)">
                    <rect id="base" fill="#FFFFFF" x="0" y="0" width="270" height="140"></rect>
                    <g id="sparkles" transform="translate(134.000000, 66.500000) scale(-1, -1) rotate(90.000000) translate(-134.000000, -66.500000) translate(67.500000, -45.500000)" fill="#F4D100">
                        <polygon id="Fill-1" transform="translate(18.735259, 5.609767) rotate(90.000000) translate(-18.735259, -5.609767) " points="22.0993737 0.0120562354 13.1262851 8.96870983 15.3679708 11.2074774 24.3442323 2.2524071"></polygon>
                        <polygon id="Fill-2" transform="translate(18.735259, 5.608815) rotate(90.000000) translate(-18.735259, -5.608815) " points="15.3695572 0.0111043519 13.1262851 2.25145522 22.1009601 11.2065255 24.3442323 8.96775795"></polygon>
                        <polygon id="Fill-1" transform="translate(6.068964, 218.197084) rotate(90.000000) translate(-6.068964, -218.197084) " points="9.43307902 212.599374 0.459990455 221.556027 2.70167612 223.794795 11.6779376 214.839725"></polygon>
                        <polygon id="Fill-2" transform="translate(6.068964, 218.196132) rotate(90.000000) translate(-6.068964, -218.196132) " points="2.7032626 212.598422 0.459990455 214.838773 9.43466549 223.793843 11.6779376 221.555075"></polygon>
                        <polygon id="Fill-1" transform="translate(83.650019, 149.978766) rotate(90.000000) translate(-83.650019, -149.978766) " points="87.0141337 144.381055 78.0410451 153.337709 80.2827308 155.576477 89.2589923 146.621406"></polygon>
                        <polygon id="Fill-2" transform="translate(83.650019, 149.977814) rotate(90.000000) translate(-83.650019, -149.977814) " points="80.2843173 144.380104 78.0410451 146.620454 87.0157202 155.575525 89.2589923 153.336757"></polygon>
                        <path d="M87.476396,197.573297 L90.8423751,194.215265 L88.5975165,191.974914 L85.2324298,195.333837 L81.8667482,191.974914 L79.623476,194.215265 L82.9888602,197.573297 L79.6244279,200.931567 L81.8661136,203.170335 L85.2324298,199.811966 L88.5981511,203.170335 L90.8414232,200.931567 L87.476396,197.573297 Z" id="Combined-Shape" opacity="0.334421642" transform="translate(85.232926, 197.572624) rotate(90.000000) translate(-85.232926, -197.572624) "></path>
                        <path d="M98.5597838,64.309447 L101.925763,60.9514143 L99.6809043,58.7110635 L96.3158176,62.0699867 L92.950136,58.7110635 L90.7068638,60.9514143 L94.072248,64.309447 L90.7078157,67.6677171 L92.9495014,69.9064846 L96.3158176,66.5481156 L99.6815389,69.9064846 L101.924811,67.6677171 L98.5597838,64.309447 Z" id="Combined-Shape" opacity="0.533173974" transform="translate(96.316313, 64.308774) rotate(90.000000) translate(-96.316313, -64.308774) "></path>
                        <polygon id="Fill-1" transform="translate(124.080490, 121.613776) rotate(135.000000) translate(-124.080490, -121.613776) " points="127.444605 116.016065 118.471516 124.972719 120.713202 127.211486 129.689463 118.256416"></polygon>
                        <polygon id="Fill-2" transform="translate(124.081163, 121.613103) rotate(135.000000) translate(-124.081163, -121.613103) " points="120.715461 116.015392 118.472189 118.255743 127.446864 127.210813 129.690136 124.972046"></polygon>
                    </g>
                    <path d="M161.998828,113.500305 L164.998781,113.500305 L164.998781,110.500352 L161.998828,110.500352 L161.998828,113.500305 Z M182.935501,88.4311964 L182.9985,68.4995078 C182.9985,66.0185466 180.979532,63.9995781 178.49857,63.9995781 C177.913579,63.9995781 177.354088,64.1120764 176.841096,64.3160732 C176.320604,62.408103 174.570132,60.999625 172.498664,60.999625 C171.913673,60.999625 171.354182,61.1121232 170.84119,61.3161201 C170.320698,59.4081499 168.570225,57.9996719 166.498758,57.9996719 C164.42729,57.9996719 162.676818,59.4081499 162.156326,61.3161201 C161.643334,61.1121232 161.083842,60.999625 160.498852,60.999625 C158.01789,60.999625 155.998922,63.0185935 155.998922,65.4995547 L155.998922,84.99925 L158.998875,84.99925 L158.998875,65.4995547 C158.998875,64.6730676 159.670865,63.9995781 160.498852,63.9995781 C161.326839,63.9995781 161.998828,64.6730676 161.998828,65.4995547 L161.998828,80.4993203 L164.998781,80.4993203 L164.998781,62.4996016 C164.998781,61.6731145 165.670771,60.999625 166.498758,60.999625 C167.326745,60.999625 167.998734,61.6731145 167.998734,62.4996016 L167.998734,80.4993203 L170.998688,80.4993203 L170.998688,65.4995547 C170.998688,64.6730676 171.670677,63.9995781 172.498664,63.9995781 C173.326651,63.9995781 173.998641,64.6730676 173.998641,65.4995547 L173.998641,80.4993203 L176.998594,80.4993203 L176.998594,68.4995078 C176.998594,67.6730207 177.670583,66.9995313 178.49857,66.9995313 C179.326557,66.9995313 179.998547,67.6730207 179.998547,68.4995078 L179.998547,87.7817065 L175.561616,102.569975 L175.527117,104.500445 L160.498852,104.500445 L160.498852,99.5010234 L155.779925,93.2086217 L152.998969,87.6467086 L152.998969,78.9993438 C152.998969,78.1728567 153.670958,77.4993672 154.498945,77.4993672 L154.498945,74.4994141 C152.017984,74.4994141 149.999016,76.5183825 149.999016,78.9993438 L149.999016,88.3546976 L153.156466,94.6710989 L157.498898,100.500008 L157.498898,104.917439 C156.606412,105.437931 155.998922,106.396416 155.998922,107.500398 L155.998922,133 L158.998875,133 L158.998875,107.500398 L176.998594,107.500398 L176.998594,133 L179.998547,133 L179.998547,107.500398 C179.998547,106.396416 179.391056,105.437931 178.49857,104.917439 L178.49857,103.219465 L182.935501,88.4311964 Z M128.999344,92.5006328 L131.999297,92.5006328 L131.999297,89.5006797 L128.999344,89.5006797 L128.999344,92.5006328 Z M149.936017,67.4315245 L149.999016,47.4998359 C149.999016,45.0188747 147.980047,42.9999063 145.499086,42.9999063 C144.914095,42.9999063 144.354604,43.1124045 143.841612,43.3164013 C143.32112,41.4084311 141.570647,39.9999531 139.49918,39.9999531 C138.914189,39.9999531 138.354698,40.1124514 137.841706,40.3164482 C137.321214,38.408478 135.570741,37 133.499273,37 C131.427806,37 129.678833,38.408478 129.156841,40.3164482 C128.643849,40.1124514 128.084358,39.9999531 127.499367,39.9999531 C125.018406,39.9999531 122.999438,42.0189216 122.999438,44.4998828 L122.999438,63.9995781 L125.999391,63.9995781 L125.999391,44.4998828 C125.999391,43.6733957 126.67288,42.9999063 127.499367,42.9999063 C128.325854,42.9999063 128.999344,43.6733957 128.999344,44.4998828 L128.999344,59.4996484 L131.999297,59.4996484 L131.999297,41.4999297 C131.999297,40.6734426 132.672786,39.9999531 133.499273,39.9999531 C134.325761,39.9999531 134.99925,40.6734426 134.99925,41.4999297 L134.99925,59.4996484 L137.999203,59.4996484 L137.999203,44.4998828 C137.999203,43.6733957 138.671193,42.9999063 139.49918,42.9999063 C140.327167,42.9999063 140.999156,43.6733957 140.999156,44.4998828 L140.999156,59.4996484 L143.999109,59.4996484 L143.999109,47.4998359 C143.999109,46.6733489 144.671099,45.9998594 145.499086,45.9998594 C146.327073,45.9998594 146.999063,46.6733489 146.999063,47.4998359 L146.999063,66.7805347 L142.562132,81.5688036 L142.527632,83.4992734 L127.499367,83.4992734 L127.499367,78.4998516 L122.780441,72.2089499 L119.999484,66.6470368 L119.999484,57.9996719 C119.999484,57.1731848 120.672974,56.4996953 121.499461,56.4996953 L121.499461,53.4997422 C119.0185,53.4997422 116.999531,55.5187106 116.999531,57.9996719 L116.999531,67.3535257 L120.156982,73.671427 L124.499414,79.5003359 L124.499414,83.9177669 C123.606928,84.4382588 122.999438,85.3952438 122.999438,86.5007266 L122.999438,133 L125.999391,133 L125.999391,86.4992266 L143.999109,86.5007266 L143.999109,133 L146.999063,133 L146.999063,86.5007266 C146.999063,85.3952438 146.391572,84.4382588 145.499086,83.9177669 L145.499086,82.2197934 L149.936017,67.4315245 Z M98.9998125,127.000094 L101.999766,127.000094 L101.999766,124.000141 L98.9998125,124.000141 L98.9998125,127.000094 Z M115.499555,77.4993672 C114.914564,77.4993672 114.355073,77.6118654 113.842081,77.8158623 C113.320089,75.9078921 111.571116,74.4994141 109.499648,74.4994141 C108.914658,74.4994141 108.355166,74.6119123 107.842174,74.8159091 C107.320182,72.9079389 105.57121,71.4994609 103.499742,71.4994609 C101.428275,71.4994609 99.6793019,72.9079389 99.15731,74.8159091 C98.6443181,74.6119123 98.0848268,74.4994141 97.4998359,74.4994141 C95.0188747,74.4994141 92.9999063,76.5183825 92.9999063,78.9993438 L92.9999063,98.5005391 L95.9998594,98.5005391 L95.9998594,78.9993438 C95.9998594,78.1728567 96.6733489,77.4993672 97.4998359,77.4993672 C98.326323,77.4993672 98.9998125,78.1728567 98.9998125,78.9993438 L98.9998125,94.0006094 L101.999766,94.0006094 L101.999766,75.9993906 C101.999766,75.1729035 102.673255,74.4994141 103.499742,74.4994141 C104.326229,74.4994141 104.999719,75.1729035 104.999719,75.9993906 L104.999719,94.0006094 L107.999672,94.0006094 L107.999672,78.9993438 C107.999672,78.1728567 108.673161,77.4993672 109.499648,77.4993672 C110.326136,77.4993672 110.999625,78.1728567 110.999625,78.9993438 L110.999625,94.0006094 L113.999578,94.0006094 L113.999578,81.9992969 C113.999578,81.1728098 114.673068,80.4993203 115.499555,80.4993203 C116.326042,80.4993203 116.999531,81.1728098 116.999531,81.9992969 L116.999531,101.281496 L112.562601,116.069765 L112.528101,118.000234 L97.4998359,118.000234 L97.4998359,113.000812 L92.7809097,106.708411 L89.9999531,101.146498 L89.9999531,92.5006328 C89.9999531,91.6726457 90.6734426,91.0006562 91.4999297,91.0006562 L91.4999297,88.0007031 C89.0189685,88.0007031 87,90.0196716 87,92.5006328 L87,101.854487 L90.1574507,108.170888 L94.4998828,113.999797 L94.4998828,118.417228 C93.6073968,118.93772 92.9999063,119.896205 92.9999063,121.000187 L92.9999063,133 L95.9998594,133 L95.9998594,121.000187 L113.999578,121.000187 L113.999578,133 L116.999531,133 L116.999531,121.000187 C116.999531,119.896205 116.392041,118.93772 115.499555,118.417228 L115.499555,116.719254 L119.936485,101.930985 L119.999484,81.9992969 C119.999484,79.5183357 117.980516,77.4993672 115.499555,77.4993672 L115.499555,77.4993672 Z" id="Fill-1" fill="#2E5478"></path>
                </g>
            </g>
        </g>
    </g>
</svg>