<svg xmlns="http://www.w3.org/2000/svg" width="24" height="24" viewBox="0 0 24 24" xmlns:xlink="http://www.w3.org/1999/xlink">
  <defs>
    <polygon id="a" points="0 10.5 0 21 16 21 16 10.5 16 0 0 0"/>
  </defs>
  <g fill="none" fill-rule="evenodd" transform="translate(4 2)">
    <mask id="b" fill="white">
      <use xlink:href="#a"/>
    </mask>
    <path fill="#000000" fill-rule="nonzero" d="M8,16.0004 C6.9,16.0004 6,15.1004 6,14.0004 C6,12.8994 6.9,12.0004 8,12.0004 C9.1,12.0004 10,12.8994 10,14.0004 C10,15.1004 9.1,16.0004 8,16.0004 M14,7.0004 L13,7.0004 L13,5.0004 C13,2.2404 10.76,0.0004 8,0.0004 C5.24,0.0004 3,2.2404 3,5.0004 L4.9,5.0004 C4.9,3.2904 6.29,1.8994 8,1.8994 C9.71,1.8994 11.1,3.2904 11.1,5.0004 L11.1,7.0004 L2,7.0004 C0.9,7.0004 0,7.8994 0,9.0004 L0,19.0004 C0,20.1004 0.9,21.0004 2,21.0004 L14,21.0004 C15.1,21.0004 16,20.1004 16,19.0004 L16,9.0004 C16,7.8994 15.1,7.0004 14,7.0004" mask="url(#b)"/>
  </g>
</svg>
