<svg xmlns="http://www.w3.org/2000/svg" width="24" height="24" viewBox="0 0 24 24">
  <path fill="#333333" d="M15.916565,8.9213639 C15.801895,8.5511077 15.55004,8.244257 15.217261,8.0693599 C14.884482,7.8944628 14.498509,7.8660927 14.145565,7.9905871 L12.660565,8.5191764 L11.654565,5.3528639 L13.100565,4.8368103 C13.838949,4.569475 14.231781,3.7291274 13.979565,2.9564532 C13.86487,2.5861754 13.613067,2.2792633 13.28034,2.1041968 C12.947612,1.9291303 12.561647,1.9004776 12.208565,2.0246318 L10.762565,2.5406853 L10.275565,1.0081943 C10.161102,0.6377463 9.909332,0.330649 9.57653,0.1555432 C9.243728,-0.0195627 8.85764,-0.0480773 8.504565,0.0763728 L8.504565,0.0763728 C7.767356,0.3450918 7.375115,1.1841728 7.625565,1.95673 L8.112565,3.4902657 L5.060565,4.5777389 L4.579565,3.0640514 C4.464884,2.6935272 4.212921,2.3864203 3.879959,2.2113291 C3.546997,2.036238 3.160775,2.0077505 2.807565,2.13223 C2.070356,2.4009489 1.678115,3.2400299 1.928565,4.0125871 L2.409565,5.5273193 L0.954565,6.0496407 C0.217356,6.3183596 -0.174885,7.1574407 0.075565,7.9299978 L0.075565,7.9299978 C0.190002,8.3004246 0.441824,8.6074608 0.774678,8.7823973 C1.107532,8.9573338 1.493628,8.9855655 1.846565,8.8607746 L3.301565,8.3384532 L4.307565,11.4974532 L2.891565,12.0020157 C2.154356,12.2707346 1.762115,13.1098157 2.012565,13.8823728 C2.127259,14.2526506 2.379062,14.5595627 2.71179,14.7346292 C3.044517,14.9096957 3.430482,14.9383484 3.783565,14.8141943 L5.199565,14.3085871 L5.716565,15.935096 C5.831234,16.3053523 6.08309,16.6122029 6.415869,16.7871 C6.748647,16.9619971 7.13462,16.9903673 7.487565,16.8658728 C8.224774,16.5971539 8.617014,15.7580729 8.366565,14.9855157 L7.850565,13.361096 L10.902565,12.2725782 L11.413565,13.8792389 C11.528259,14.2495167 11.780062,14.5564288 12.11279,14.7314952 C12.445517,14.9065617 12.831482,14.9352145 13.184565,14.8110603 C13.922165,14.5428013 14.314602,13.7032995 14.063565,12.9307032 L13.553565,11.3240425 L15.037565,10.7944085 C15.771507,10.5261279 16.163069,9.6917565 15.916565,8.9213639 Z M6.958565,10.5572746 L5.952565,7.3909621 L9.004565,6.3024443 L10.010565,9.4687568 L6.958565,10.5572746 Z" transform="translate(4 4)"/>
</svg>
