<?xml version="1.0" encoding="UTF-8" standalone="no"?>
<svg width="24px" height="24px" viewBox="0 0 24 24" version="1.1" xmlns="http://www.w3.org/2000/svg" xmlns:xlink="http://www.w3.org/1999/xlink">
    <!-- Generator: Sketch 45.2 (43514) - http://www.bohemiancoding.com/sketch -->
    <title>Icon/SortAlpha</title>
    <desc>Created with Sketch.</desc>
    <defs>
        <path d="M15.34,4.36 L10.62,4.36 L12.98,2 L15.34,4.36 Z M10.65,19.07 L15.31,19.07 L12.98,21.4 L10.65,19.07 Z M6.5,5.97 L2,17.43 L3.84,17.43 L4.76,14.98 L9.87,14.98 L10.79,17.43 L12.63,17.43 L8.14,5.97 L6.5,5.97 Z M5.37,13.34 L7.31,8.16 L9.25,13.34 L5.37,13.34 Z M16.13,15.84 L22.25,15.84 L22.25,17.43 L13.72,17.43 L13.72,16.14 L19.64,7.58 L13.76,7.58 L13.76,5.98 L22.06,5.98 L22.06,7.24 L16.13,15.84 L16.13,15.84 Z" id="path-1"></path>
    </defs>
    <g id="Page-1" stroke="none" stroke-width="1" fill="none" fill-rule="evenodd">
        <g id="Icon/SortAlpha">
            <mask id="mask-2" fill="white">
                <use xlink:href="#path-1"></use>
            </mask>
            <use id="Shape" fill="#000000" fill-rule="nonzero" xlink:href="#path-1"></use>
        </g>
    </g>
</svg>