<svg xmlns="http://www.w3.org/2000/svg" width="24" height="24" viewBox="0 0 24 24">
  <path fill="#333333" d="M15.752,1.6599375 C15.16435,1.9449128 14.537875,2.1327525 13.895,2.2167321 C14.578408,1.763449 15.083087,1.0686599 15.317,0.2590714 C14.686687,0.6699309 13.991575,0.9606713 13.264,1.1177679 C12.666926,0.4104248 11.808757,0.0036252 10.906,0 C9.07844,0.0461885 7.632081,1.6300461 7.674,3.53925 C7.673351,3.810145 7.701524,4.0802762 7.758,4.3446696 C5.127995,4.1852175 2.695305,2.8356089 1.096,0.6487232 C0.80805,1.1921984 0.657637,1.8034505 0.659,2.4246161 C0.650316,3.5923757 1.186929,4.6912933 2.097,5.3694643 C1.581279,5.3507725 1.078135,5.1981889 0.633,4.9254911 L0.633,4.9704107 C0.606429,6.620646 1.686242,8.0663558 3.225,8.4407143 C2.749974,8.5825897 2.249302,8.6033673 1.765,8.5013036 C2.156308,9.9165008 3.374718,10.9080984 4.784,10.9583036 C3.655716,11.9354666 2.236606,12.4711185 0.771,12.4730357 C0.513247,12.4732462 0.255737,12.4564988 0,12.4228929 C1.462142,13.4581096 3.187678,14.0119065 4.954,14.0128393 C10.898,14.0128393 14.148,8.6214375 14.148,3.9466607 C14.148,3.7920536 14.148,3.6405804 14.139,3.4891071 C14.77589,2.9837195 15.322002,2.3644199 15.752,1.6599375 L15.752,1.6599375 Z" transform="translate(4 5)"/>
</svg>
