<?xml version="1.0" encoding="UTF-8" standalone="no"?>
<svg width="24px" height="24px" viewBox="0 0 24 24" version="1.1" xmlns="http://www.w3.org/2000/svg" xmlns:xlink="http://www.w3.org/1999/xlink">
    <!-- Generator: Sketch 45.2 (43514) - http://www.bohemiancoding.com/sketch -->
    <title>Icon/Grid</title>
    <desc>Created with Sketch.</desc>
    <defs>
        <path d="M4,12 L9,12 L9,6 L4,6 L4,12 Z M4,19 L9,19 L9,13 L4,13 L4,19 Z M10,19 L15,19 L15,13 L10,13 L10,19 Z M16,19 L21,19 L21,13 L16,13 L16,19 Z M10,12 L15,12 L15,6 L10,6 L10,12 Z M16,6 L16,12 L21,12 L21,6 L16,6 Z" id="path-1"></path>
    </defs>
    <g id="Page-1" stroke="none" stroke-width="1" fill="none" fill-rule="evenodd">
        <g id="Icon/Grid">
            <mask id="mask-2" fill="white">
                <use xlink:href="#path-1"></use>
            </mask>
            <use id="Shape" fill="#000000" fill-rule="nonzero" xlink:href="#path-1"></use>
        </g>
    </g>
</svg>