<?xml version="1.0" encoding="UTF-8" standalone="no"?>
<svg width="24px" height="24px" viewBox="0 0 24 24" version="1.1" xmlns="http://www.w3.org/2000/svg" xmlns:xlink="http://www.w3.org/1999/xlink">
    <!-- Generator: Sketch 45.2 (43514) - http://www.bohemiancoding.com/sketch -->
    <title>Icon/Chat</title>
    <desc>Created with Sketch.</desc>
    <defs>
        <path d="M20,3 L4,3 C2.9,3 2.01,3.9 2.01,5 L2,23 L6,19 L20,19 C21.1,19 22,18.1 22,17 L22,5 C22,3.9 21.1,3 20,3 Z M6,10 L18,10 L18,12 L6,12 L6,10 Z M14,15 L6,15 L6,13 L14,13 L14,15 Z M18,9 L6,9 L6,7 L18,7 L18,9 Z" id="path-1"></path>
    </defs>
    <g id="Page-1" stroke="none" stroke-width="1" fill="none" fill-rule="evenodd">
        <g id="Icon/Chat">
            <g id="↳-Colors/Green" transform="translate(12.000000, 13.000000) scale(-1, -1) translate(-12.000000, -13.000000) translate(0.000000, 1.000000)">
                <mask id="mask-2" fill="white">
                    <use xlink:href="#path-1"></use>
                </mask>
                <use id="Shape" fill="#000000" fill-rule="nonzero" transform="translate(12.000000, 13.000000) scale(-1, -1) translate(-12.000000, -13.000000) " xlink:href="#path-1"></use>
            </g>
        </g>
    </g>
</svg>