<?xml version="1.0" encoding="UTF-8" standalone="no"?>
<svg width="171px" height="49px" viewBox="0 0 171 49" version="1.1" xmlns="http://www.w3.org/2000/svg" xmlns:xlink="http://www.w3.org/1999/xlink">
    <!-- Generator: Sketch 45.2 (43514) - http://www.bohemiancoding.com/sketch -->
    <title>Group</title>
    <desc>Created with Sketch.</desc>
    <defs>
        <path d="M23.1122269,7.11118826 C23.8120907,6.70712169 24.6743585,6.70712169 25.3742223,7.11118826 L38.4215053,14.6433999 L44.2513905,11.2737263 C39.8109919,4.55605662 32.2958158,0.515032666 24.2432246,0.515032666 C16.1906334,0.515032666 8.67545727,4.55605662 4.23505873,11.2737263 L10.0649439,14.6433999 L23.1122269,7.11118826 Z M8.54917374,32.2962922 L8.54917374,17.2318689 L2.71928858,13.8621953 C-0.877139122,21.0663276 -0.618631645,29.5943986 3.4075431,36.5674705 C7.43371785,43.5405424 14.6902507,48.0280308 22.7274545,48.5150327 L22.7274545,41.7873452 L9.68017146,34.2551336 C8.98033985,33.8510856 8.54921093,33.1043881 8.54917374,32.2962922 Z M39.8439973,17.2318689 L39.8439973,32.2962922 C39.8368108,33.1116687 39.3913335,33.8600705 38.6780202,34.2551336 L25.6540568,41.7873452 L25.6540568,48.5150327 C33.6933609,48.0317182 40.9533887,43.5457064 44.9822604,36.5720276 C49.011132,29.5983487 49.270918,21.0681191 45.6738824,13.8621953 L39.8439973,17.2318689 Z M70.0428024,24.3676483 C68.0023426,23.574784 66.8596851,23.2016713 66.8830047,21.9190966 C66.9146379,21.3421897 67.1827014,20.8038403 67.6240167,20.4309288 C68.0653321,20.0580174 68.6408604,19.8835317 69.2149587,19.9485954 C70.6683859,20.0631268 72.0387031,20.6721567 73.0976622,21.6742414 L74.8233082,19.4239057 C73.2560066,18.1098788 71.2833447,17.3768229 69.2382783,17.3484666 C66.4868154,17.1880388 64.1151421,19.2639016 63.9097632,22.0123747 C63.9097632,25.0905541 66.4515932,26.2332116 69.0050829,27.1426737 C71.1388208,27.9005587 72.2698185,28.3669496 72.2698185,29.8360806 C72.2698185,31.083676 71.3137174,31.89986 69.4598139,31.89986 C67.7676723,31.8411091 66.184665,31.0496055 65.1223793,29.7311427 L63.3034552,31.946499 C64.8957663,33.6292294 67.1081601,34.5858263 69.4248346,34.5932669 L69.4248346,34.5932669 C72.1182415,34.5932669 75.2547197,33.0308577 75.2547197,29.5445864 C75.24306,26.2332116 72.9111059,25.4869863 70.0311426,24.3676483 L70.0428024,24.3676483 Z M86.2032441,20.0651931 C87.9886405,20.1218122 89.6540057,20.9780411 90.7388947,22.3971471 L92.8493132,20.6132023 C91.2445928,18.5752485 88.7971382,17.3815777 86.2032441,17.3717861 C80.7348118,17.3717861 77.6916117,21.2428299 77.6916117,26.058315 C77.5658114,28.3530355 78.4216851,30.5930053 80.0456213,32.2191661 C81.6695575,33.8453268 83.9083536,34.7042661 86.2032441,34.5816071 C88.7983755,34.6120317 91.2579935,33.4253738 92.8493132,31.3751703 L90.7388947,29.5795657 C89.6652332,31.0120321 87.9929736,31.8718057 86.2032441,31.9115197 C84.6746781,31.9418632 83.2040594,31.3268127 82.1522199,30.2172775 C81.1003805,29.1077422 80.5646636,27.6064049 80.6765129,26.0816346 C80.6531934,22.455446 82.9151888,20.0651931 86.1799245,20.0651931 L86.2032441,20.0651931 Z M103.494683,17.3484666 C101.193042,17.2681268 98.962479,18.1529253 97.3417497,19.7891534 C95.7210203,21.4253816 94.8574904,23.6642646 94.9597316,25.9650369 C94.9597316,30.6723211 98.7757394,34.488329 103.483024,34.488329 C108.190308,34.488329 112.006316,30.6723211 112.006316,25.9650369 C112.11912,23.6634171 111.260647,21.420134 109.640094,19.7818461 C108.019541,18.1435581 105.785735,17.2607196 103.483024,17.3484666 L103.494683,17.3484666 Z M103.494683,31.9231795 C101.954889,31.9131774 100.486938,31.2705161 99.4351078,30.1459177 C98.3832776,29.0213194 97.8401027,27.5137208 97.932973,25.9766966 C97.7989434,23.9122478 98.8242652,21.9446031 100.593124,20.8717319 C102.361982,19.7988608 104.580746,19.7988608 106.349604,20.8717319 C108.118463,21.9446031 109.143784,23.9122478 109.009755,25.9766966 C109.102444,27.5066162 108.563626,29.0076042 107.519076,30.1292825 C106.474527,31.2509608 105.015661,31.8951659 103.483024,31.9115197 L103.494683,31.9231795 Z M121.46239,17.5350229 L115.35267,17.5350229 L115.35267,34.3950508 L118.220973,34.3950508 L118.220973,28.3902691 L121.135916,28.3902691 C124.785424,28.3902691 127.233976,26.6646231 127.233976,23.0034552 C127.222316,19.866977 125.49667,17.5350229 121.46239,17.5350229 Z M120.844422,25.8018001 L118.209314,25.8018001 L118.209314,20.1118322 L121.042638,20.1118322 C123.106417,20.1118322 124.260734,21.184531 124.260734,22.9568161 C124.260734,24.7291012 123.199695,25.8018001 120.844422,25.8018001 Z M133.12216,27.32923 L139.383457,27.32923 L139.383457,24.7640805 L133.12216,24.7640805 L133.12216,20.1001724 L140.875907,20.1001724 L140.875907,17.5350229 L130.265516,17.5350229 L130.265516,34.3950508 L141.377277,34.3950508 L141.377277,31.8299013 L133.12216,31.8299013 L133.12216,27.32923 Z M150.320321,24.3559886 C148.279861,23.5631242 147.137204,23.1900115 147.160523,21.9074368 C147.192157,21.3305299 147.46022,20.7921805 147.901535,20.4192691 C148.342851,20.0463576 148.918379,19.8718719 149.492477,19.9369356 C150.945905,20.0514671 152.316222,20.6604969 153.375181,21.6625816 L155.077507,19.4122459 C153.510206,18.0982191 151.537544,17.3651631 149.492477,17.3368068 C146.738814,17.1699506 144.363261,19.2492094 144.163962,22.000715 C144.163962,25.0788943 146.705792,26.2215518 149.259282,27.1310139 C151.39302,27.888899 152.512358,28.3552898 152.512358,29.8244208 C152.512358,31.0720163 151.556257,31.8882002 149.702353,31.8882002 C148.049269,31.8026592 146.510481,31.0184285 145.469857,29.7311427 L143.615953,31.946499 C145.208264,33.6292294 147.420658,34.5858263 149.737333,34.5932669 L149.737333,34.5932669 C152.430739,34.5932669 155.567218,33.0308577 155.567218,29.5445864 C155.590537,26.2332116 153.258583,25.4869863 150.36696,24.3676483 L150.320321,24.3559886 Z M162.691337,20.5432437 L162.691337,20.5432437 C162.153741,19.9336801 161.369634,19.5994708 160.557599,19.6337816 C159.654031,19.6415496 158.793481,20.020826 158.178116,20.6825081 C157.562752,21.3441902 157.246813,22.2299555 157.304523,23.1317127 C157.224776,24.042797 157.536451,24.9447787 158.161665,25.6122674 C158.78688,26.2797562 159.666571,26.6496955 160.580919,26.6296438 C161.43306,26.6679842 162.250642,26.2896351 162.772956,25.6152438 L162.772956,25.6152438 L162.772956,26.5247058 L164.253747,26.5247058 L164.253747,16.2990873 L162.702997,16.2990873 L162.691337,20.5432437 Z M160.779135,25.2071518 C160.244925,25.2148741 159.731845,24.9987544 159.364161,24.6111354 C158.996477,24.2235165 158.807722,23.6997511 158.843613,23.166692 C158.797838,22.6226184 158.982595,22.0843216 159.352841,21.683037 C159.723087,21.2817524 160.244802,21.0543513 160.790795,21.0562736 C161.338575,21.0548908 161.862209,21.2815909 162.23605,21.6819761 C162.60989,22.0823612 162.800193,22.620293 162.761296,23.166692 C162.783412,23.6930835 162.591277,24.2059703 162.228752,24.5882695 C161.866227,24.9705687 161.364257,25.1896468 160.837434,25.195492 L160.779135,25.2071518 Z M168.777737,17.6399609 C169.186814,17.672502 169.584279,17.7917415 169.943715,17.989754 L170.293508,16.6838597 C169.780623,16.372778 169.191001,16.2112376 168.591181,16.2174689 C167.261967,16.2174689 166.550721,17.021993 166.550721,18.5494229 L166.550721,19.7853586 L165.769517,19.7853586 L165.769517,21.1029126 L166.527402,21.1029126 L166.527402,26.5363656 L168.101471,26.5363656 L168.101471,21.0679333 L169.768818,21.0679333 L169.768818,19.7503793 L168.101471,19.7503793 L168.101471,18.6776804 C168.101471,17.9431149 168.369646,17.6283011 168.836036,17.6283011 L168.777737,17.6399609 Z" id="path-1"></path>
        <path d="M5,13.18 L5,17.18 L12,21 L19,17.18 L19,13.18 L12,17 L5,13.18 Z M12,3 L1,9 L12,15 L21,10.09 L21,17 L23,17 L23,9 L12,3 Z" id="path-3"></path>
    </defs>
    <g id="Symbols" stroke="none" stroke-width="1" fill="none" fill-rule="evenodd">
        <g id="LOGO/Logotype" transform="translate(-15.000000, -11.000000)">
            <g id="Group" transform="translate(15.000000, 11.000000)">
                <g id="Scopes-Logo">
                    <mask id="mask-2" fill="white">
                        <use xlink:href="#path-1"></use>
                    </mask>
                    <use id="Shape" fill="#F4D100" fill-rule="nonzero" xlink:href="#path-1"></use>
                    <g id="Colors/Yellow-Dark" mask="url(#mask-2)" fill="#F4D100">
                        <g transform="translate(-15.000000, -12.000000)" id="Rectangle">
                            <rect x="0" y="0" width="200" height="71"></rect>
                        </g>
                    </g>
                </g>
                <g id="Icon/Lesson" transform="translate(12.000000, 12.000000)">
                    <mask id="mask-4" fill="white">
                        <use xlink:href="#path-3"></use>
                    </mask>
                    <use id="Shape" fill="#000000" fill-rule="nonzero" xlink:href="#path-3"></use>
                    <g id="Colors/Yellow-Dark" mask="url(#mask-4)" fill-rule="evenodd" fill="#F4D100">
                        <g transform="translate(12.000000, 12.000000) rotate(90.000000) translate(-12.000000, -12.000000) " id="Rectangle">
                            <rect x="0" y="0" width="24" height="24"></rect>
                        </g>
                    </g>
                </g>
            </g>
        </g>
    </g>
</svg>